<?xml version="1.0" encoding="UTF-8"?>
<svg version="1.1" xmlns="http://www.w3.org/2000/svg" width="256" height="256">
<path d="M0 0 C84.48 0 168.96 0 256 0 C256 84.48 256 168.96 256 256 C171.52 256 87.04 256 0 256 C0 171.52 0 87.04 0 0 Z " fill="#030303" transform="translate(0,0)"/>
<path d="M0 0 C5.04830663 2.43107174 7.4296781 6.52283399 9.92578125 11.3671875 C10.46525391 12.33591797 10.46525391 12.33591797 11.015625 13.32421875 C14.6613726 20.51941119 15.73747765 28.46801551 16.92578125 36.3671875 C17.09787109 37.4617627 17.26996094 38.55633789 17.44726562 39.68408203 C18.79473637 48.84184804 19.23113185 57.73018672 19.17578125 66.9921875 C19.18351563 68.29414062 19.19125 69.59609375 19.19921875 70.9375 C19.16619009 87.45182873 16.74142857 101.38841072 5.92578125 114.3671875 C0.36922891 118.74149466 -5.07894703 120.8408253 -12.1328125 120.61328125 C-18.58797089 119.79502174 -23.63717783 114.80422842 -28.07421875 110.3671875 C-27.95304688 110.97820312 -27.831875 111.58921875 -27.70703125 112.21875 C-26.40966843 119.30434696 -25.61110007 126.38450669 -24.94921875 133.5546875 C-24.86172363 134.48039551 -24.77422852 135.40610352 -24.68408203 136.35986328 C-24.44761817 139.02757535 -24.25656489 141.6952995 -24.07421875 144.3671875 C-23.95300659 145.57979248 -23.95300659 145.57979248 -23.8293457 146.81689453 C-23.56301013 150.94531321 -23.72433646 153.49931953 -26.3828125 156.7734375 C-27.40304254 157.82718844 -28.44734557 158.85804424 -29.51171875 159.8671875 C-30.3310791 160.69500732 -30.3310791 160.69500732 -31.16699219 161.53955078 C-32.27022326 162.64956004 -33.38293809 163.75023171 -34.50537109 164.84082031 C-35.89078558 166.18872124 -37.24485532 167.56867805 -38.59375 168.953125 C-42.49720041 172.95911789 -46.54327194 176.72523805 -50.7890625 180.36328125 C-53.13944084 182.42438225 -55.42548198 184.54257865 -57.70947266 186.67651367 C-76.39348785 204.1176475 -76.39348785 204.1176475 -84.07421875 207.3671875 C-89.17093355 207.02895472 -92.7573315 205.78227286 -97.171875 203.26953125 C-98.8590564 202.32025757 -98.8590564 202.32025757 -100.58032227 201.35180664 C-101.76604118 200.66987404 -102.95150229 199.987493 -104.13671875 199.3046875 C-105.35619527 198.6116785 -106.57616838 197.91954263 -107.79663086 197.22827148 C-110.17362463 195.8800553 -112.54709137 194.52593253 -114.91796875 193.16699219 C-117.46870848 191.71247074 -120.02816473 190.28157583 -122.60546875 188.875 C-129.67915611 184.99882814 -136.03062297 180.72447664 -142.07421875 175.3671875 C-142.85539062 174.70332031 -143.6365625 174.03945312 -144.44140625 173.35546875 C-154.23600984 164.43479444 -158.17673739 152.43632158 -162.44311523 140.26293945 C-164.13517803 135.54692618 -166.05211173 131.42608656 -168.76171875 127.1796875 C-174.98264741 117.20667406 -176.425085 104.82432722 -178.07421875 93.3671875 C-177.41421875 93.6971875 -176.75421875 94.0271875 -176.07421875 94.3671875 C-176.07421875 95.0271875 -176.07421875 95.6871875 -176.07421875 96.3671875 C-175.41421875 96.3671875 -174.75421875 96.3671875 -174.07421875 96.3671875 C-173.95046875 97.2128125 -173.82671875 98.0584375 -173.69921875 98.9296875 C-173.04651548 102.51955548 -172.12174412 105.87543625 -171.07421875 109.3671875 C-170.74421875 107.7171875 -170.41421875 106.0671875 -170.07421875 104.3671875 C-169.41421875 104.3671875 -168.75421875 104.3671875 -168.07421875 104.3671875 C-164.91322062 107.73891884 -162.98820531 111.33804977 -161.1015625 115.5 C-159.26836519 118.83181869 -157.69520127 120.16019333 -154.07421875 121.3671875 C-148.88672683 121.86394889 -144.45617202 121.97022165 -139.63671875 119.8671875 C-135.42212105 115.75538486 -133.75371776 111.36992141 -131.88671875 105.8671875 C-132.13452591 101.24145391 -133.93803335 99.47039072 -137.01953125 96.1640625 C-140.29330402 93.3010673 -142.63424524 91.42329036 -147.08203125 91.25 C-149.16574103 91.41189224 -151.2490832 91.57858532 -153.33203125 91.75 C-154.23695313 91.62367187 -155.141875 91.49734375 -156.07421875 91.3671875 C-157.8671875 88.9921875 -157.8671875 88.9921875 -159.07421875 86.3671875 C-159.46609375 85.6659375 -159.85796875 84.9646875 -160.26171875 84.2421875 C-161.07421875 82.3671875 -161.07421875 82.3671875 -161.07421875 79.3671875 C-158.59921875 78.3771875 -158.59921875 78.3771875 -156.07421875 77.3671875 C-154.42421875 79.3471875 -152.77421875 81.3271875 -151.07421875 83.3671875 C-151.42484375 82.6453125 -151.77546875 81.9234375 -152.13671875 81.1796875 C-153.1921063 78.01352484 -153.09286539 76.50801465 -152.07421875 73.3671875 C-151.08421875 72.3771875 -151.08421875 72.3771875 -150.07421875 71.3671875 C-149.08421875 71.3671875 -148.09421875 71.3671875 -147.07421875 71.3671875 C-145.28487895 73.45671259 -143.67218404 75.51443589 -142.07421875 77.7421875 C-138.61128652 82.56583647 -138.61128652 82.56583647 -134.07421875 86.3671875 C-134.68910156 85.35398437 -135.30398437 84.34078125 -135.9375 83.296875 C-136.75402549 81.94538453 -137.57042506 80.59381798 -138.38671875 79.2421875 C-138.79083984 78.57703125 -139.19496094 77.911875 -139.61132812 77.2265625 C-144.29730058 69.45470574 -144.29730058 69.45470574 -146.07421875 65.3671875 C-145.74421875 64.7071875 -145.41421875 64.0471875 -145.07421875 63.3671875 C-144.47996094 64.26179688 -143.88570312 65.15640625 -143.2734375 66.078125 C-138.20308495 73.53172928 -133.05093341 79.68583618 -126.12890625 85.4765625 C-125.45085937 86.10046875 -124.7728125 86.724375 -124.07421875 87.3671875 C-124.07421875 88.0271875 -124.07421875 88.6871875 -124.07421875 89.3671875 C-123.49671875 89.6353125 -122.91921875 89.9034375 -122.32421875 90.1796875 C-120.04009827 91.38519553 -118.11990344 92.79854273 -116.07421875 94.3671875 C-116.48671875 93.81933594 -116.89921875 93.27148438 -117.32421875 92.70703125 C-128.60065197 77.22710619 -137.20199778 58.88647517 -142.07421875 40.3671875 C-141.57921875 39.3771875 -141.57921875 39.3771875 -141.07421875 38.3671875 C-140.60113281 39.03363281 -140.12804687 39.70007813 -139.640625 40.38671875 C-134.70112172 47.27121163 -129.52556979 53.88195954 -124.07421875 60.3671875 C-123.35347168 61.22546143 -123.35347168 61.22546143 -122.61816406 62.10107422 C-117.00112008 68.77332258 -111.39053629 75.3379753 -105.07421875 81.3671875 C-105.40292969 80.94050781 -105.73164062 80.51382813 -106.0703125 80.07421875 C-112.80307381 71.22492543 -119.59234383 62.0518332 -125.07421875 52.3671875 C-124.57921875 51.3771875 -124.57921875 51.3771875 -124.07421875 50.3671875 C-123.3471875 51.32818359 -123.3471875 51.32818359 -122.60546875 52.30859375 C-118.81383796 57.20125579 -115.03877409 61.56479584 -110.2734375 65.515625 C-107.61838277 67.75096415 -105.10907867 70.12165643 -102.57421875 72.4921875 C-98.30338209 76.39967543 -94.10500151 79.51957462 -89.07421875 82.3671875 C-89.82445312 81.53058594 -90.5746875 80.69398437 -91.34765625 79.83203125 C-101.05440728 68.85668462 -108.97017218 57.24722055 -116.26171875 44.5546875 C-116.66092529 43.86648926 -117.06013184 43.17829102 -117.47143555 42.46923828 C-118.40438596 40.80351073 -119.24853165 39.08860713 -120.07421875 37.3671875 C-119.57921875 36.3771875 -119.57921875 36.3771875 -119.07421875 35.3671875 C-118.67332031 35.90085938 -118.27242187 36.43453125 -117.859375 36.984375 C-109.55075493 47.874131 -100.22896149 57.23262757 -90.07421875 66.3671875 C-92.72834672 63.00170541 -95.46500781 59.74747305 -98.32421875 56.5546875 C-99.030625 55.76449219 -99.73703125 54.97429687 -100.46484375 54.16015625 C-101.26148437 53.27263672 -101.26148437 53.27263672 -102.07421875 52.3671875 C-101.74421875 51.3771875 -101.41421875 50.3871875 -101.07421875 49.3671875 C-91.34726911 50.74430044 -81.43187011 59.17651372 -74.07421875 65.3671875 C-74.07421875 66.0271875 -74.07421875 66.6871875 -74.07421875 67.3671875 C-72.42421875 67.6971875 -70.77421875 68.0271875 -69.07421875 68.3671875 C-69.42484375 69.0890625 -69.77546875 69.8109375 -70.13671875 70.5546875 C-71.23843563 73.85983813 -70.8930826 75.01728993 -70.07421875 78.3671875 C-69.96378755 80.01261237 -69.86029227 81.65850971 -69.76171875 83.3046875 C-69.29580091 87.98472794 -68.30408733 90.79733275 -65.07421875 94.3671875 C-62.80344104 95.96201278 -60.5777889 97.11540243 -58.07421875 98.3671875 C-57.26984375 98.7796875 -56.46546875 99.1921875 -55.63671875 99.6171875 C-54.86328125 99.9884375 -54.86328125 99.9884375 -54.07421875 100.3671875 C-56.05421875 100.6971875 -58.03421875 101.0271875 -60.07421875 101.3671875 C-58.01112499 101.25240337 -55.94873521 101.12492552 -53.88671875 100.9921875 C-52.16388672 100.88777344 -52.16388672 100.88777344 -50.40625 100.78125 C-47.27462758 100.39209176 -44.92136066 99.6862024 -42.07421875 98.3671875 C-43.06421875 98.0371875 -44.05421875 97.7071875 -45.07421875 97.3671875 C-44.10484375 96.7690625 -43.13546875 96.1709375 -42.13671875 95.5546875 C-38.84369833 93.65591241 -38.84369833 93.65591241 -38.07421875 90.3671875 C-37.98023783 88.78609669 -37.94429989 87.20106135 -37.94921875 85.6171875 C-37.94664062 84.79734375 -37.9440625 83.9775 -37.94140625 83.1328125 C-38.03061021 80.2806545 -38.03061021 80.2806545 -38.56640625 77.14453125 C-41.46902356 55.55352405 -39.08763594 28.95472224 -27.07421875 10.3671875 C-26.51734375 9.4803125 -25.96046875 8.5934375 -25.38671875 7.6796875 C-18.19580879 0.48877754 -10.05666774 -3.06813592 0 0 Z " fill="#FAFAFA" transform="translate(223.07421875,26.6328125)"/>
<path d="M0 0 C0.33 0 0.66 0 1 0 C1.05124883 6.98849306 1.08596069 13.9769366 1.10986328 20.96557617 C1.11984149 23.33668834 1.13342884 25.70778847 1.15087891 28.07885742 C1.24256866 40.86957769 1.32341109 53.38364206 -1 66 C-0.59007812 64.90300781 -0.18015625 63.80601562 0.2421875 62.67578125 C0.78642886 61.22134314 1.33070133 59.76691667 1.875 58.3125 C2.14441406 57.59126953 2.41382813 56.87003906 2.69140625 56.12695312 C4.08668603 52.40053517 5.50202917 48.68675345 7 45 C7.33 45.99 7.66 46.98 8 48 C9.61949562 44.93745186 10.81760898 41.85210297 11.9453125 38.578125 C12.29980469 37.55332031 12.65429688 36.52851563 13.01953125 35.47265625 C13.38433594 34.40917969 13.74914062 33.34570312 14.125 32.25 C14.49753906 31.17105469 14.87007813 30.09210938 15.25390625 28.98046875 C16.1717251 26.32114748 17.08699437 23.6609768 18 21 C18.33 21 18.66 21 19 21 C19.46404853 32.34340861 18.19335141 43.0053862 16.27539062 54.17504883 C15.95026212 56.02199952 15.95026212 56.02199952 16 58 C16.39832031 56.85660156 16.79664063 55.71320313 17.20703125 54.53515625 C17.74157799 53.04405219 18.27676763 51.55317849 18.8125 50.0625 C19.20405273 48.93038086 19.20405273 48.93038086 19.60351562 47.77539062 C20.31510087 45.81633495 21.15061557 43.90336512 22 42 C22.99 41.67 23.98 41.34 25 41 C26.17647837 38.47587751 26.17647837 38.47587751 27.0625 35.5 C27.65638257 33.64918523 28.29245041 31.81041028 29 30 C29.99 29.505 29.99 29.505 31 29 C31.16032995 34.87876496 30.6092534 40.23388095 29.5 46 C29.35691406 46.77472656 29.21382813 47.54945313 29.06640625 48.34765625 C28.71727671 50.23295579 28.35954684 52.11665939 28 54 C29.43969458 50.9802079 30.87635087 47.95897965 32.3125 44.9375 C32.71662109 44.08994141 33.12074219 43.24238281 33.53710938 42.36914062 C35.79353583 37.61780361 37.96617024 32.85091435 40 28 C40.33 28 40.66 28 41 28 C41.48350422 35.89723556 39.67664721 43.33532703 38 51 C41.62388217 45.14699444 44.94346635 39.28772945 47.82421875 33.03125 C49 31 49 31 52 29 C55 31 55 31 56 34 C56.09308544 35.66458673 56.12996185 37.33281997 56.125 39 C56.12886719 40.299375 56.12886719 40.299375 56.1328125 41.625 C56 44 56 44 55 47 C55.99 45.68 56.98 44.36 58 43 C58 52.57 58 62.14 58 72 C15.76 72 -26.48 72 -70 72 C-69.27026333 68.35131665 -68.74257278 66.01557821 -67.1875 62.8125 C-66.87167969 62.13832031 -66.55585938 61.46414062 -66.23046875 60.76953125 C-64.12653896 57.74387983 -61.2751737 57.09355906 -57.875 55.9375 C-52.34300949 53.6038766 -48.30898532 49.05511198 -44 45 C-42.7766378 43.93082188 -41.5477936 42.8678704 -40.3125 41.8125 C-36.19150999 38.20982007 -32.15181871 34.51972238 -28.125 30.8125 C-27.45766846 30.20575439 -26.79033691 29.59900879 -26.1027832 28.97387695 C-25.15858521 28.09928833 -25.15858521 28.09928833 -24.1953125 27.20703125 C-23.62828613 26.6860083 -23.06125977 26.16498535 -22.47705078 25.62817383 C-20.87384693 23.8609397 -20.00424476 22.15342926 -19 20 C-17.89999425 18.54746228 -16.75143198 17.1306952 -15.5625 15.75 C-14.96566406 15.04359375 -14.36882812 14.3371875 -13.75390625 13.609375 C-12 12 -12 12 -9 12 C-6.88506836 9.58108133 -6.88506836 9.58108133 -4.875 6.5625 C-3.81925781 5.04849609 -3.81925781 5.04849609 -2.7421875 3.50390625 C-2.16726562 2.67761719 -1.59234375 1.85132813 -1 1 C-0.67 0.67 -0.34 0.34 0 0 Z " fill="#FAFAFA" transform="translate(198,184)"/>
<path d="M0 0 C7.43268124 2.60736426 11.67231639 9.93378097 14.96484375 16.6015625 C19.28054426 26.51041088 21.43181036 37.08983445 23.3828125 47.68359375 C23.78033285 49.80819303 23.78033285 49.80819303 24.77734375 52.6015625 C3.65734375 52.6015625 -17.46265625 52.6015625 -39.22265625 52.6015625 C-39.22265625 35.09623341 -39.22265625 35.09623341 -37.09765625 27.7890625 C-36.87319824 26.98573486 -36.64874023 26.18240723 -36.41748047 25.35473633 C-33.61957617 15.86589868 -29.4756311 8.32338739 -21.22265625 2.6015625 C-20.09150391 1.79138672 -20.09150391 1.79138672 -18.9375 0.96484375 C-13.30223791 -1.86494973 -6.09435175 -1.09248485 0 0 Z " fill="#FBFBFB" transform="translate(56.22265625,203.3984375)"/>
<path d="M0 0 C0.33 0 0.66 0 1 0 C1.18792114 1.07761597 1.18792114 1.07761597 1.37963867 2.17700195 C4.38083735 19.52963786 4.38083735 19.52963786 8.3125 36.6875 C8.50553711 37.4287915 8.69857422 38.17008301 8.89746094 38.93383789 C10.09260497 43.28884207 11.53438586 47.47941628 13.1640625 51.69140625 C18.72339999 66.33832814 19.65279659 77.54457639 17 93 C11.39 93 5.78 93 0 93 C0 62.31 0 31.62 0 0 Z " fill="#020202" transform="translate(0,163)"/>
<path d="M0 0 C0.99 0 1.98 0 3 0 C3 0.66 3 1.32 3 2 C3.66 2 4.32 2 5 2 C5 1.34 5 0.68 5 0 C8 1 8 1 9 3 C9.99 3.33 10.98 3.66 12 4 C13.0194119 4.98020375 14.02246356 5.97803008 15 7 C15.33 7 15.66 7 16 7 C18.41833811 20.90544413 18.41833811 20.90544413 15.625 27 C14 29 14 29 12 31 C12.99 31.33 13.98 31.66 15 32 C7.25648396 35.71043477 -0.56388678 35.70309796 -9 36 C-6 34 -6 34 -4 33 C-4.54269531 32.69707031 -5.08539063 32.39414063 -5.64453125 32.08203125 C-9.93986158 29.56674772 -12.85835324 27.68485228 -15 23 C-14.01 23 -13.02 23 -12 23 C-12 22.34 -12 21.68 -12 21 C-12.66 21 -13.32 21 -14 21 C-15.53214888 17.93570224 -15.22938548 15.3834358 -15 12 C-13.5 9.1875 -13.5 9.1875 -12 7 C-12 6.34 -12 5.68 -12 5 C-10.68 4.67 -9.36 4.34 -8 4 C-8.33 3.01 -8.66 2.02 -9 1 C-7.88625 1.20625 -6.7725 1.4125 -5.625 1.625 C-4.42875 1.74875 -3.2325 1.8725 -2 2 C-1.34 1.34 -0.68 0.68 0 0 Z " fill="#1A1A1A" transform="translate(169,93)"/>
<path d="M0 0 C2.91596344 2.12070068 4.84085877 4.6612362 7.0625 7.5 C5.0825 7.83 3.1025 8.16 1.0625 8.5 C2.2270201 10.16621425 2.2270201 10.16621425 4.0625 11.5 C6.71716049 11.26956136 6.71716049 11.26956136 9.0625 10.5 C9.0625 11.16 9.0625 11.82 9.0625 12.5 C9.825625 11.84 10.58875 11.18 11.375 10.5 C14.0625 8.5 14.0625 8.5 17.0625 8.5 C17.0625 9.16 17.0625 9.82 17.0625 10.5 C19.0425 10.5 21.0225 10.5 23.0625 10.5 C22.4025 11.16 21.7425 11.82 21.0625 12.5 C18.9375 12.125 18.9375 12.125 17.0625 11.5 C17.0625 12.16 17.0625 12.82 17.0625 13.5 C18.2071875 13.6546875 18.2071875 13.6546875 19.375 13.8125 C22.29839031 14.56034403 23.28964335 15.10664352 25.0625 17.5 C25.75 19.6875 25.75 19.6875 26.0625 21.5 C26.0625 19.52 26.0625 17.54 26.0625 15.5 C26.7225 15.83 27.3825 16.16 28.0625 16.5 C28.625 18.86328125 28.625 18.86328125 29.0625 21.8125 C29.60468355 25.43835251 30.23984696 28.30276279 32.0625 31.5 C25.48088675 37.08006341 21.86500003 38.20164855 13.0625 37.5 C5.90583621 34.6068806 3.05334499 27.83301556 0 21.1875 C-0.83071682 19.31810662 -0.83071682 19.31810662 -2.9375 18.5 C-2.2775 18.5 -1.6175 18.5 -0.9375 18.5 C-0.9375 17.18 -0.9375 15.86 -0.9375 14.5 C-1.5975 14.5 -2.2575 14.5 -2.9375 14.5 C-3.63656942 12.90084119 -4.32139468 11.29544955 -5 9.6875 C-5.38285156 8.79417969 -5.76570313 7.90085937 -6.16015625 6.98046875 C-6.9375 4.5 -6.9375 4.5 -5.9375 1.5 C-3.73436925 -0.09537054 -2.67491166 -0.69029978 0 0 Z " fill="#323232" transform="translate(55.9375,111.5)"/>
<path d="M0 0 C1.65 0 3.3 0 5 0 C6.8125 1.8125 6.8125 1.8125 8 4 C8 4.99 8 5.98 8 7 C8.66 7 9.32 7 10 7 C10.12375 6.21625 10.2475 5.4325 10.375 4.625 C11 2 11 2 13 0 C14.98828125 0.0546875 14.98828125 0.0546875 17 1 C18.23046875 3.2578125 18.23046875 3.2578125 19.1875 6.125 C19.67283203 7.52105469 19.67283203 7.52105469 20.16796875 8.9453125 C21 12 21 12 22 19 C13.75 19 5.5 19 -3 19 C-2.01 12.73 -1.02 6.46 0 0 Z " fill="#F9F9F9" transform="translate(90,237)"/>
<path d="M0 0 C2.80089118 2.58138561 4.85827938 5.5286901 7.0625 8.625 C11.43418242 14.53539959 16.32447474 19.30791649 22 24 C21.34 24.66 20.68 25.32 20 26 C18.68 25.01 17.36 24.02 16 23 C16 26.76687864 16.23537317 27.91190305 18 31 C17.278125 30.38125 16.55625 29.7625 15.8125 29.125 C13.20533543 27.15514232 11.00755983 26.1696066 8 25 C7.67 24.34 7.34 23.68 7 23 C3.04 23.495 3.04 23.495 -1 24 C-0.67 24.99 -0.34 25.98 0 27 C-4.95 27.495 -4.95 27.495 -10 28 C-15 19.81818182 -15 19.81818182 -15 16 C-13.35 15.34 -11.7 14.68 -10 14 C-8.35 15.98 -6.7 17.96 -5 20 C-5.350625 19.278125 -5.70125 18.55625 -6.0625 17.8125 C-7.11788755 14.64633734 -7.01864664 13.14082715 -6 10 C-5.34 9.34 -4.68 8.68 -4 8 C-3.01 8 -2.02 8 -1 8 C0.7893398 10.08952509 2.40203471 12.14724839 4 14.375 C7.46293223 19.19864897 7.46293223 19.19864897 12 23 C11.07767578 21.48019531 11.07767578 21.48019531 10.13671875 19.9296875 C9.32019326 18.57819703 8.50379369 17.22663048 7.6875 15.875 C7.28337891 15.20984375 6.87925781 14.5446875 6.46289062 13.859375 C0 3.14043445 0 3.14043445 0 0 Z " fill="#E2E2E2" transform="translate(77,90)"/>
<path d="M0 0 C9.72694964 1.37711294 19.64234864 9.80932622 27 16 C27 16.66 27 17.32 27 18 C28.65 18.33 30.3 18.66 32 19 C31.4740625 20.0828125 31.4740625 20.0828125 30.9375 21.1875 C29.85761248 24.42716256 30.22199488 25.73237849 31 29 C31.03824623 31.33301986 31.04574284 33.66711508 31 36 C30.67 36 30.34 36 30 36 C29.505 33.525 29.505 33.525 29 31 C27.35 31.33 25.7 31.66 24 32 C24 30.68 24 29.36 24 28 C21.66475552 25.92178182 21.66475552 25.92178182 18.6875 24.0625 C14.57432023 21.35801709 12.3863637 19.27807497 10 15 C8.7105602 13.60397344 7.37597055 12.24832043 6 10.9375 C0.8313253 5.9939759 0.8313253 5.9939759 -1 3 C-0.67 2.01 -0.34 1.02 0 0 Z " fill="#CCCCCC" transform="translate(122,76)"/>
<path d="M0 0 C3.0625 0.3125 3.0625 0.3125 4.74609375 1.54296875 C6.44922163 3.8323365 6.34347952 5.12069346 6.1875 7.9375 C6.11676153 9.39471251 6.06831242 10.85358313 6.0625 12.3125 C6.3925 12.6425 6.7225 12.9725 7.0625 13.3125 C7.0625 11.9925 7.0625 10.6725 7.0625 9.3125 C8.3825 8.9825 9.7025 8.6525 11.0625 8.3125 C11.97076085 16.97461735 11.97076085 16.97461735 9.83203125 20.125 C8.25 21.5 8.25 21.5 5.0625 23.3125 C4.0725 22.9825 3.0825 22.6525 2.0625 22.3125 C3.0525 21.3225 4.0425 20.3325 5.0625 19.3125 C3.0825 19.9725 1.1025 20.6325 -0.9375 21.3125 C-0.9375 20.6525 -0.9375 19.9925 -0.9375 19.3125 C-2.5153125 19.4671875 -2.5153125 19.4671875 -4.125 19.625 C-7.9375 19.3125 -7.9375 19.3125 -10.9375 17.3125 C-13.31328734 13.74881899 -13.3271936 12.19271947 -12.53515625 8.1171875 C-11.79926432 5.89508247 -10.86027326 4.6500814 -8.9375 3.3125 C-8.9375 4.3025 -8.9375 5.2925 -8.9375 6.3125 C-8.31875 5.69375 -7.7 5.075 -7.0625 4.4375 C-2.9375 0.3125 -2.9375 0.3125 0 0 Z " fill="#868686" transform="translate(172.9375,98.6875)"/>
<path d="M0 0 C6.27 0 12.54 0 19 0 C18.01 1.52625 17.02 3.0525 16 4.625 C6.69205919 18.98451264 6.69205919 18.98451264 1 35 C0.67 35 0.34 35 0 35 C0 23.45 0 11.9 0 0 Z " fill="#252525" transform="translate(0,0)"/>
<path d="M0 0 C4.49029126 -0.36407767 4.49029126 -0.36407767 6.75 1.25 C8.12041836 3.16858571 8.6018827 4.69091968 9 7 C9 5.02 9 3.04 9 1 C9.66 1.33 10.32 1.66 11 2 C11.9900912 5.34155781 12.30079835 8.53007615 12 12 C10.34099544 14.85298511 9.06378799 15.358685 6 17 C2.125 17.3125 2.125 17.3125 -1 17 C-0.67 16.34 -0.34 15.68 0 15 C-0.66 14.67 -1.32 14.34 -2 14 C-2 14.66 -2 15.32 -2 16 C-5.875 14.125 -5.875 14.125 -7 13 C-7.59479554 5.74349442 -7.59479554 5.74349442 -5 2.5 C-4.34 2.005 -3.68 1.51 -3 1 C-1.68 1.66 -0.36 2.32 1 3 C0.67 4.32 0.34 5.64 0 7 C0.99 7 1.98 7 3 7 C2.42547254 3.06924356 2.42547254 3.06924356 0 0 Z " fill="#6E6E6E" transform="translate(73,126)"/>
<path d="M0 0 C0.33 0 0.66 0 1 0 C1 9.57 1 19.14 1 29 C-3.95 29 -8.9 29 -14 29 C-12 24 -12 24 -9.8125 20.6875 C-5.66391945 14.26589477 -2.9575225 7.02305054 0 0 Z " fill="#FCFCFC" transform="translate(255,227)"/>
<path d="M0 0 C0.99 0 1.98 0 3 0 C4.74430261 3.16325282 5.66392585 6.21224575 6.5078125 9.71875 C6.77207031 10.81574219 7.03632813 11.91273438 7.30859375 13.04296875 C7.57800781 14.18378906 7.84742188 15.32460937 8.125 16.5 C8.40214844 17.64082031 8.67929687 18.78164062 8.96484375 19.95703125 C11 28.48864686 11 28.48864686 11 33 C11.66 33.33 12.32 33.66 13 34 C9.85714286 41.42857143 9.85714286 41.42857143 8 45 C4.84127067 37.91370107 3.76694448 30.61069744 2.63745117 22.99926758 C2.31151592 20.80587761 1.97225216 18.61486012 1.63085938 16.42382812 C-0.14504759 4.81294263 -0.14504759 4.81294263 0 0 Z " fill="#1C1C1C" transform="translate(12,185)"/>
<path d="M0 0 C5.77514364 -0.57326793 10.53867966 -0.93275289 15.375 2.625 C16.61049665 3.7200993 17.82069833 4.84460309 19 6 C19.82757813 6.70189453 19.82757813 6.70189453 20.671875 7.41796875 C22.125 8.8125 22.125 8.8125 24 12 C23.9295968 16.09746646 23.18535456 19.6839078 20.40625 22.76953125 C19.71015625 23.37861328 19.71015625 23.37861328 19 24 C18.34 23.67 17.68 23.34 17 23 C16.3671875 20.71484375 16.3671875 20.71484375 15.875 17.9375 C15.70742187 17.01839844 15.53984375 16.09929687 15.3671875 15.15234375 C15.24601562 14.44207031 15.12484375 13.73179687 15 13 C14.67 14.32 14.34 15.64 14 17 C13.54625 16.05125 13.0925 15.1025 12.625 14.125 C11.19761746 10.99686321 11.19761746 10.99686321 9 9 C6.93125966 8.3574765 6.93125966 8.3574765 5 8 C5 7.34 5 6.68 5 6 C6.65 6 8.3 6 10 6 C8.35 5.67 6.7 5.34 5 5 C5 4.34 5 3.68 5 3 C4.01 3 3.02 3 2 3 C2 2.34 2 1.68 2 1 C1.34 0.67 0.68 0.34 0 0 Z " fill="#131313" transform="translate(68,117)"/>
<path d="M0 0 C2.91596344 2.12070068 4.84085877 4.6612362 7.0625 7.5 C5.0825 7.83 3.1025 8.16 1.0625 8.5 C2.2270201 10.16621425 2.2270201 10.16621425 4.0625 11.5 C6.71716049 11.26956136 6.71716049 11.26956136 9.0625 10.5 C9.0625 11.82 9.0625 13.14 9.0625 14.5 C8.0725 14.5 7.0825 14.5 6.0625 14.5 C7.0525 15.985 7.0525 15.985 8.0625 17.5 C8.3925 18.16 8.7225 18.82 9.0625 19.5 C8.0725 19.83 7.0825 20.16 6.0625 20.5 C4.84380071 23.00447516 4.84380071 23.00447516 4.0625 25.5 C2.3550002 24.21937515 0.68876404 22.88232443 -0.9375 21.5 C-0.9375 20.84 -0.9375 20.18 -0.9375 19.5 C-1.5975 19.17 -2.2575 18.84 -2.9375 18.5 C-2.2775 18.5 -1.6175 18.5 -0.9375 18.5 C-0.9375 17.18 -0.9375 15.86 -0.9375 14.5 C-1.5975 14.5 -2.2575 14.5 -2.9375 14.5 C-3.63656942 12.90084119 -4.32139468 11.29544955 -5 9.6875 C-5.38285156 8.79417969 -5.76570313 7.90085937 -6.16015625 6.98046875 C-6.9375 4.5 -6.9375 4.5 -5.9375 1.5 C-3.73436925 -0.09537054 -2.67491166 -0.69029978 0 0 Z " fill="#191919" transform="translate(55.9375,111.5)"/>
<path d="M0 0 C0.8125 1.63671875 0.8125 1.63671875 1 4 C-0.59994977 6.1484174 -2.13231447 7.92398637 -4 9.8125 C-4.50893799 10.34512451 -5.01787598 10.87774902 -5.54223633 11.42651367 C-7.01646124 12.96291455 -8.50622071 14.48264299 -10 16 C-10.66386719 16.6909375 -11.32773438 17.381875 -12.01171875 18.09375 C-15.49860995 21.67004867 -19.19670169 24.94253962 -22.984375 28.1953125 C-24.98702812 29.98838564 -26.83065485 31.86983428 -28.6875 33.8125 C-32.1854021 37.36625682 -35.9386164 40.4532618 -39.875 43.5 C-40.44694092 43.94577393 -41.01888184 44.39154785 -41.6081543 44.85083008 C-45.74828282 48 -45.74828282 48 -48 48 C-48.33 49.32 -48.66 50.64 -49 52 C-49.66 52 -50.32 52 -51 52 C-51.66 53.32 -52.32 54.64 -53 56 C-53.66 56 -54.32 56 -55 56 C-55 57.32 -55 58.64 -55 60 C-55.99 60 -56.98 60 -58 60 C-57.41444623 55.31556988 -55.69519681 50.87594969 -53 47 C-50.66510381 45.59060592 -48.47138785 44.82027187 -45.875 43.9375 C-40.34300949 41.6038766 -36.30898532 37.05511198 -32 33 C-30.7766378 31.93082188 -29.5477936 30.8678704 -28.3125 29.8125 C-24.19150999 26.20982007 -20.15181871 22.51972238 -16.125 18.8125 C-15.45766846 18.20575439 -14.79033691 17.59900879 -14.1027832 16.97387695 C-13.15858521 16.09928833 -13.15858521 16.09928833 -12.1953125 15.20703125 C-11.62828613 14.6860083 -11.06125977 14.16498535 -10.47705078 13.62817383 C-8.87446073 11.8616163 -8.00976546 10.14955179 -7 8 C-5.83102663 6.5506846 -4.62060692 5.13400769 -3.375 3.75 C-2.74335938 3.04359375 -2.11171875 2.3371875 -1.4609375 1.609375 C-0.97882813 1.07828125 -0.49671875 0.5471875 0 0 Z " fill="#838383" transform="translate(186,196)"/>
<path d="M0 0 C0.33 0.66 0.66 1.32 1 2 C1.66 2 2.32 2 3 2 C3 1.34 3 0.68 3 0 C7 0 11 0 15 0 C16.34964844 -0.01740234 16.34964844 -0.01740234 17.7265625 -0.03515625 C19.16128906 -0.04869141 19.16128906 -0.04869141 20.625 -0.0625 C22.06746094 -0.07990234 22.06746094 -0.07990234 23.5390625 -0.09765625 C26 0 26 0 28 1 C28 1.66 28 2.32 28 3 C28.66 3 29.32 3 30 3 C30 3.66 30 4.32 30 5 C28.02 5 26.04 5 24 5 C24 4.01 24 3.02 24 2 C23.34 2.66 22.68 3.32 22 4 C22 3.34 22 2.68 22 2 C21.34 2 20.68 2 20 2 C19.67 2.66 19.34 3.32 19 4 C18.34 4.66 17.68 5.32 17 6 C16.7525 6.680625 16.505 7.36125 16.25 8.0625 C15 10 15 10 12.125 10.875 C8.95317812 11.00187288 7.61069322 10.70699172 5 9 C5 8.34 5 7.68 5 7 C5.66 6.67 6.32 6.34 7 6 C3.02245872 5.26665571 3.02245872 5.26665571 -1 5 C-0.67 3.35 -0.34 1.7 0 0 Z " fill="#CCCCCC" transform="translate(201,89)"/>
<path d="M0 0 C2.4375 0.75 2.4375 0.75 4.4375 1.75 C4.4375 2.41 4.4375 3.07 4.4375 3.75 C6.0875 4.08 7.7375 4.41 9.4375 4.75 C8.9115625 5.8328125 8.9115625 5.8328125 8.375 6.9375 C7.29511248 10.17716256 7.65949488 11.48237849 8.4375 14.75 C8.47574623 17.08301986 8.48324284 19.41711508 8.4375 21.75 C8.1075 21.75 7.7775 21.75 7.4375 21.75 C6.9425 19.275 6.9425 19.275 6.4375 16.75 C4.7875 17.08 3.1375 17.41 1.4375 17.75 C1.4375 16.43 1.4375 15.11 1.4375 13.75 C-0.99152746 11.49695768 -0.99152746 11.49695768 -4.0625 9.5 C-5.59390625 8.44039062 -5.59390625 8.44039062 -7.15625 7.359375 C-7.9503125 6.82828125 -8.744375 6.2971875 -9.5625 5.75 C-9.2325 5.09 -8.9025 4.43 -8.5625 3.75 C-7.2425 4.74 -5.9225 5.73 -4.5625 6.75 C-4.2325 6.09 -3.9025 5.43 -3.5625 4.75 C-2.9025 4.75 -2.2425 4.75 -1.5625 4.75 C-1.5625 3.76 -1.5625 2.77 -1.5625 1.75 C-2.8825 2.08 -4.2025 2.41 -5.5625 2.75 C-3.69692219 0.29529235 -3.16506129 -0.30878647 0 0 Z " fill="#A3A3A3" transform="translate(144.5625,90.25)"/>
<path d="M0 0 C1.9375 0.8125 1.9375 0.8125 4 2 C4.33 2.99 4.66 3.98 5 5 C6.2375 5.433125 6.2375 5.433125 7.5 5.875 C10 7 10 7 10.875 9.0625 C11.04713103 13.10757915 10.56666194 16.99849493 10 21 C7.36 21 4.72 21 2 21 C2.19464844 20.43925781 2.38929687 19.87851563 2.58984375 19.30078125 C3.0968273 16.45684495 2.52212297 14.89576928 1.5625 12.1875 C0.15864263 7.88021036 -0.29369172 4.50327305 0 0 Z " fill="#F5F5F5" transform="translate(117,235)"/>
<path d="M0 0 C0 0.66 0 1.32 0 2 C1.98 2 3.96 2 6 2 C5.34 2.66 4.68 3.32 4 4 C1.875 3.625 1.875 3.625 0 3 C0 3.66 0 4.32 0 5 C1.32 5.33 2.64 5.66 4 6 C3.835 6.598125 3.67 7.19625 3.5 7.8125 C2.8885876 10.11344336 2.8885876 10.11344336 3 13 C2.01 13 1.02 13 0 13 C0 12.01 0 11.02 0 10 C-0.99 9.34 -1.98 8.68 -3 8 C-3.66 9.98 -4.32 11.96 -5 14 C-5.33 14 -5.66 14 -6 14 C-6.20086443 17.71599191 -6.1519437 18.77208445 -4 22 C-4.99 22.33 -5.98 22.66 -7 23 C-8.32 20.69 -9.64 18.38 -11 16 C-11.33 16 -11.66 16 -12 16 C-12 14.02 -12 12.04 -12 10 C-11.34 10 -10.68 10 -10 10 C-10.33 8.68 -10.66 7.36 -11 6 C-10.01 6 -9.02 6 -8 6 C-8 5.34 -8 4.68 -8 4 C-3.64705882 0 -3.64705882 0 0 0 Z " fill="#313131" transform="translate(73,120)"/>
<path d="M0 0 C-0.33 0.99 -0.66 1.98 -1 3 C-0.34 3.33 0.32 3.66 1 4 C0.01 4 -0.98 4 -2 4 C-2 4.66 -2 5.32 -2 6 C4.6 6 11.2 6 18 6 C18.495 7.98 18.495 7.98 19 10 C13.72 10 8.44 10 3 10 C2.67 9.34 2.34 8.68 2 8 C1.505 8.144375 1.01 8.28875 0.5 8.4375 C-4.2877078 9.51473426 -9.09798352 10 -14 10 C-14 8.68 -14 7.36 -14 6 C-11.36 5.67 -8.72 5.34 -6 5 C-6.99 4.67 -7.98 4.34 -9 4 C-9 2.68 -9 1.36 -9 0 C-5.67465243 -1.10844919 -3.37817425 -0.84454356 0 0 Z " fill="#838383" transform="translate(211,77)"/>
<path d="M0 0 C3.77739619 3.77739619 3.11555185 8.85669244 3.1328125 13.9140625 C3 16 3 16 2 19 C1.41630557 22.41538144 1.41630557 22.41538144 2 26 C3.82062273 28.12848313 5.66088264 29.39185681 8 31 C7.67 31.66 7.34 32.32 7 33 C-0.15542522 31.47507331 -0.15542522 31.47507331 -3 29.875 C-5.02441321 26.07922522 -4.56007692 21.85673984 -3.35546875 17.86328125 C-2.81916324 16.39174348 -2.27868037 14.92172252 -1.734375 13.453125 C-0.42230646 9.07025776 -0.24659072 4.54917356 0 0 Z " fill="#424242" transform="translate(107,143)"/>
<path d="M0 0 C0.78375 0.04125 1.5675 0.0825 2.375 0.125 C2.705 1.445 3.035 2.765 3.375 4.125 C2.240625 4.104375 1.10625 4.08375 -0.0625 4.0625 C-3.44075674 3.70922523 -3.44075674 3.70922523 -4.625 5.125 C-2.975 5.125 -1.325 5.125 0.375 5.125 C0.705 6.775 1.035 8.425 1.375 10.125 C1.045 9.465 0.715 8.805 0.375 8.125 C-0.615 7.795 -1.605 7.465 -2.625 7.125 C-2.955 8.445 -3.285 9.765 -3.625 11.125 C-2.305 11.455 -0.985 11.785 0.375 12.125 C-0.57375 12.41375 -1.5225 12.7025 -2.5 13 C-5.67711578 13.89325109 -5.67711578 13.89325109 -7.625 16.125 C-6.305 17.115 -4.985 18.105 -3.625 19.125 C-6.61476005 18.79280444 -8.47085108 18.22641377 -11 16.5625 C-13.10697119 13.40204321 -12.83921276 11.61036199 -12.1875 7.96484375 C-11.49512525 5.70020133 -10.56885053 4.47724385 -8.625 3.125 C-8.625 4.115 -8.625 5.105 -8.625 6.125 C-8.00625 5.50625 -7.3875 4.8875 -6.75 4.25 C-2.625 0.125 -2.625 0.125 0 0 Z " fill="#979797" transform="translate(172.625,98.875)"/>
<path d="M0 0 C0.99 0 1.98 0 3 0 C4.70071023 1.94744539 6.19547005 3.84104324 7.6875 5.9375 C8.10322266 6.50146484 8.51894531 7.06542969 8.94726562 7.64648438 C12 11.83208898 12 11.83208898 12 13 C6.25 13.125 6.25 13.125 4 12 C4 12.66 4 13.32 4 14 C2.1875 13.875 2.1875 13.875 0 13 C-2.03666161 9.90989273 -3.06672638 7.97865362 -2.8125 4.25 C-2 2 -2 2 0 0 Z " fill="#DFDFDF" transform="translate(73,98)"/>
<path d="M0 0 C-1.32 1.65 -2.64 3.3 -4 5 C-4.66 4.67 -5.32 4.34 -6 4 C-5.67 3.67 -5.34 3.34 -5 3 C-9.33697056 3.2911747 -13.6689014 3.63268027 -18 4 C-18.71172363 4.05913574 -19.42344727 4.11827148 -20.15673828 4.17919922 C-30.53714495 5.07559558 -40.09076078 6.71816193 -50 10 C-48.35 10.33 -46.7 10.66 -45 11 C-44.67 12.65 -44.34 14.3 -44 16 C-48.03321763 14.78065514 -51.54269479 13.44045073 -55 11 C-55 10.34 -55 9.68 -55 9 C-37.27221682 3.74892769 -18.62539248 -0.58103477 0 0 Z " fill="#ACACAC" transform="translate(164,182)"/>
<path d="M0 0 C3.46941546 0.45822468 6.67395049 0.89131683 10 2 C12.4 15.8 12.4 15.8 9.6875 22 C8 24 8 24 5 26 C4.01 25.67 3.02 25.34 2 25 C2.66 25 3.32 25 4 25 C4.28875 24.38125 4.5775 23.7625 4.875 23.125 C6 21 6 21 8 19 C8.02308597 16.77871445 8.02308597 16.77871445 7.625 14.375 C7.51414063 13.55773437 7.40328125 12.74046875 7.2890625 11.8984375 C7.19367188 11.27195312 7.09828125 10.64546875 7 10 C6.34 11.65 5.68 13.3 5 15 C3.23682057 12.24503215 3.00260483 10.8541293 3.0625 7.5 C2.9956828 3.758237 2.53172823 2.63721691 0 0 Z " fill="#222222" transform="translate(175,98)"/>
<path d="M0 0 C2.64881915 2.44506383 4.81688487 5.03877803 6.9375 7.9375 C9.38638737 11.26626399 12.0359891 14.11198938 15 17 C16.70971212 18.96804774 18.35393436 20.97769078 20 23 C19.01 23.99 18.02 24.98 17 26 C17.66 26.33 18.32 26.66 19 27 C19 27.99 19 28.98 19 30 C15.54313356 28.84771119 15.27267695 28.28667816 13.4765625 25.28125 C13.0125 24.51296875 12.5484375 23.7446875 12.0703125 22.953125 C11.59335938 22.14359375 11.11640625 21.3340625 10.625 20.5 C10.15578125 19.72140625 9.6865625 18.9428125 9.203125 18.140625 C6.8013969 14.13332177 4.45739781 10.09267701 2.1484375 6.03125 C1.73513184 5.30486328 1.32182617 4.57847656 0.89599609 3.83007812 C0 2 0 2 0 0 Z " fill="#C7C7C7" transform="translate(103,62)"/>
<path d="M0 0 C2.34778144 2.94009979 4.04182349 5.89021642 5.6640625 9.28125 C6.14617187 10.28800781 6.62828125 11.29476562 7.125 12.33203125 C7.62 13.37746094 8.115 14.42289063 8.625 15.5 C9.12773437 16.54542969 9.63046875 17.59085938 10.1484375 18.66796875 C14.19624452 27.16618725 14.19624452 27.16618725 15 31 C13.35 31 11.7 31 10 31 C7.39523267 25.19737986 5.31676913 19.28372879 3.3125 13.25 C2.99216797 12.30511719 2.67183594 11.36023438 2.34179688 10.38671875 C2.03951172 9.48050781 1.73722656 8.57429688 1.42578125 7.640625 C1.15161377 6.82110352 0.87744629 6.00158203 0.5949707 5.15722656 C0 3 0 3 0 0 Z " fill="#C4C4C4" transform="translate(166,61)"/>
<path d="M0 0 C0.33 0 0.66 0 1 0 C1.11690073 4.49977884 1.18748837 8.99916287 1.25 13.5 C1.28351563 14.7684375 1.31703125 16.036875 1.3515625 17.34375 C1.42862955 24.74218647 1.02734243 29.72115117 -3 36 C-3.495 34.515 -3.495 34.515 -4 33 C-3.690625 32.443125 -3.38125 31.88625 -3.0625 31.3125 C-1.09974934 27.04063092 -1.52725148 22.41824557 -3 18 C-2.67 17.34 -2.34 16.68 -2 16 C-2.99 15.67 -3.98 15.34 -5 15 C-4.5188509 9.22621075 -2.81532819 5.04140164 0 0 Z " fill="#5C5C5C" transform="translate(255,199)"/>
<path d="M0 0 C0.33 0 0.66 0 1 0 C1.14810665 5.9040697 0.63823016 11.37604046 -0.375 17.1875 C-0.50132812 17.96802734 -0.62765625 18.74855469 -0.7578125 19.55273438 C-1.4445701 23.6011704 -2.26770534 27.24167376 -4 31 C-5.32 30.34 -6.64 29.68 -8 29 C-7.37824774 25.63416807 -6.55180815 22.44284621 -5.5 19.1875 C-4.51895225 16.01324456 -3.8046869 13.0571224 -3.5 9.75 C-2.9867434 5.90057552 -1.92273594 3.34388859 0 0 Z " fill="#DADADA" transform="translate(228,213)"/>
<path d="M0 0 C0.65355469 0.58007812 0.65355469 0.58007812 1.3203125 1.171875 C4.2558359 3.73886948 7.13381895 6.1684444 10.4375 8.25 C11.283125 8.8275 12.12875 9.405 13 10 C13 10.66 13 11.32 13 12 C13.66 12.33 14.32 12.66 15 13 C14.01 13.33 13.02 13.66 12 14 C13.40171536 17.11569405 15.08408908 19.4114956 17.375 21.9375 C20.0168515 24.88821097 22.56050498 27.87744637 25 31 C21.94839391 29.62736637 19.75173068 28.04043427 17.328125 25.7421875 C16.33232422 24.80439453 16.33232422 24.80439453 15.31640625 23.84765625 C14.63449219 23.19667969 13.95257813 22.54570313 13.25 21.875 C12.55261719 21.21628906 11.85523437 20.55757812 11.13671875 19.87890625 C9.42049511 18.25672226 7.70846565 16.63034621 6 15 C6.19456787 14.38721191 6.38913574 13.77442383 6.58959961 13.14306641 C7.277694 10.8660922 7.277694 10.8660922 5.56640625 8.7109375 C4.90511719 7.94007812 4.24382812 7.16921875 3.5625 6.375 C0 2.17808219 0 2.17808219 0 0 Z " fill="#262626" transform="translate(110,63)"/>
<path d="M0 0 C3.19664358 3.85499122 5.98202008 7.85942328 8.6875 12.0625 C9.09033203 12.67416016 9.49316406 13.28582031 9.90820312 13.91601562 C13.71826682 19.81938064 13.71826682 19.81938064 14 23 C12.6875 24.75 12.6875 24.75 11 26 C10.34 26 9.68 26 9 26 C6.98988825 21.00399411 4.99016103 16.00398538 3 11 C2.64808594 10.11828125 2.29617187 9.2365625 1.93359375 8.328125 C0.79171554 5.39344283 0 3.17969357 0 0 Z " fill="#D2D2D2" transform="translate(59,74)"/>
<path d="M0 0 C1.47197127 2.2079569 2.67236462 4.2270661 3.83984375 6.58203125 C4.18080078 7.26716797 4.52175781 7.95230469 4.87304688 8.65820312 C5.22431641 9.36912109 5.57558594 10.08003906 5.9375 10.8125 C6.45860352 11.86147461 6.45860352 11.86147461 6.99023438 12.93164062 C7.67363025 14.30744135 8.35475837 15.68437122 9.03344727 17.0625 C9.9213492 18.84234081 10.84571097 20.60387037 11.7734375 22.36328125 C13 25 13 25 12.6875 27.375 C12.3471875 28.179375 12.3471875 28.179375 12 29 C10.68 29 9.36 29 8 29 C7.03976175 26.14646179 6.08175987 23.29220445 5.125 20.4375 C4.85558594 19.63763672 4.58617187 18.83777344 4.30859375 18.01367188 C0 5.14043445 0 5.14043445 0 0 Z " fill="#D8D8D8" transform="translate(52,75)"/>
<path d="M0 0 C0.66 0.33 1.32 0.66 2 1 C0.68 1.99 -0.64 2.98 -2 4 C-1.01 4 -0.02 4 1 4 C0.67 4.99 0.34 5.98 0 7 C1.98 7 3.96 7 6 7 C5 9 5 9 1.96484375 10.0859375 C-2.14751936 11.16000729 -6.20479929 11.43911744 -10.4375 11.625 C-11.16904297 11.66367188 -11.90058594 11.70234375 -12.65429688 11.7421875 C-14.43583532 11.83533984 -16.21788122 11.91870286 -18 12 C-17.01 11.34 -16.02 10.68 -15 10 C-14.34 9.34 -13.68 8.68 -13 8 C-11.01643517 7.28591666 -9.01684563 6.61382258 -7 6 C-7 5.34 -7 4.68 -7 4 C-7.66 3.34 -8.32 2.68 -9 2 C-7.329375 1.7834375 -7.329375 1.7834375 -5.625 1.5625 C-2.17857953 1.21627965 -2.17857953 1.21627965 0 0 Z " fill="#383838" transform="translate(178,117)"/>
<path d="M0 0 C2.87460011 3.64674189 5.27691584 7.54002921 7.6875 11.5 C8.10322266 12.16386719 8.51894531 12.82773438 8.94726562 13.51171875 C11.08296742 17.02563205 12 18.79608128 12 23 C10.35 23.33 8.7 23.66 7 24 C6.00947453 21.50399697 5.03255943 19.00395203 4.0625 16.5 C3.78470703 15.80390625 3.50691406 15.1078125 3.22070312 14.390625 C1.36375386 9.55808233 0.45899366 5.15932112 0 0 Z " fill="#DEDEDE" transform="translate(41,88)"/>
<path d="M0 0 C4.23090117 0.30220723 6.25186236 3.02285089 9 6 C8.67 6.33 8.34 6.66 8 7 C8.33 7.66 8.66 8.32 9 9 C8.67 9.66 8.34 10.32 8 11 C7.34 11 6.68 11 6 11 C5.67 11.99 5.34 12.98 5 14 C2.36 11.69 -0.28 9.38 -3 7 C-1.125 1.125 -1.125 1.125 0 0 Z " fill="#D5D5D5" transform="translate(135,84)"/>
<path d="M0 0 C0 0.66 0 1.32 0 2 C0.66 2 1.32 2 2 2 C2 1.34 2 0.68 2 0 C5 1 5 1 6 3 C6.99 3.33 7.98 3.66 9 4 C8.67 4.66 8.34 5.32 8 6 C5.67843403 6.40729228 3.3431213 6.74438677 1 7 C1 7.33 1 7.66 1 8 C-0.093125 8.268125 -1.18625 8.53625 -2.3125 8.8125 C-5.61692663 9.87663739 -6.94960422 10.34654664 -9 13 C-8.835 12.236875 -8.67 11.47375 -8.5 10.6875 C-7.90854604 7.96403764 -7.90854604 7.96403764 -8 5 C-7 2 -7 2 -5.125 0.8125 C-3 0 -3 0 0 0 Z " fill="#353535" transform="translate(172,93)"/>
<path d="M0 0 C3.74433397 0.21947251 4.85711187 0.84575351 7.45703125 3.65234375 C8.2563797 4.73707941 9.04125555 5.83260571 9.8125 6.9375 C10.21919922 7.48857422 10.62589844 8.03964844 11.04492188 8.60742188 C14 12.69486607 14 12.69486607 14 15 C14.66 15.33 15.32 15.66 16 16 C16 16.66 16 17.32 16 18 C13.3359375 18.52734375 13.3359375 18.52734375 10 18 C7.70771406 15.47567284 6.21338464 12.56411508 4.625 9.5625 C3.95017578 8.35883789 3.95017578 8.35883789 3.26171875 7.13085938 C0 1.25679141 0 1.25679141 0 0 Z " fill="#ADADAD" transform="translate(146,74)"/>
<path d="M0 0 C3.9429464 1.46596725 5.01834588 3.37308275 6.75 7.125 C7.17796875 8.03507812 7.6059375 8.94515625 8.046875 9.8828125 C8.51867187 10.93082031 8.51867187 10.93082031 9 12 C6.03 12 3.06 12 0 12 C-3 5.375 -3 5.375 -3 2 C-2.01 1.34 -1.02 0.68 0 0 Z " fill="#D8D8D8" transform="translate(65,104)"/>
<path d="M0 0 C0.66 0.33 1.32 0.66 2 1 C1.34 1.66 0.68 2.32 0 3 C-0.14091482 5.47326954 -0.14091482 5.47326954 1 8 C5.02779892 11.27078468 5.02779892 11.27078468 10 12 C10.99 11.67 11.98 11.34 13 11 C11.25 14.875 11.25 14.875 9 16 C6.6670134 16.04022391 4.33293334 16.04320247 2 16 C2.33 15.34 2.66 14.68 3 14 C2.34 13.67 1.68 13.34 1 13 C1 13.66 1 14.32 1 15 C-2.875 13.125 -2.875 13.125 -4 12 C-4.59479554 4.74349442 -4.59479554 4.74349442 -2 1.5 C-1.34 1.005 -0.68 0.51 0 0 Z " fill="#C8C8C8" transform="translate(70,127)"/>
<path d="M0 0 C2 1.0625 2 1.0625 4 3 C4.46369995 7.25058287 4.33012265 10.35918336 2 14 C1.4225 13.690625 0.845 13.38125 0.25 13.0625 C-1.84294184 12.07416636 -3.74535275 11.4831387 -6 11 C-5.67 9.35 -5.34 7.7 -5 6 C-4.34 6.33 -3.68 6.66 -3 7 C-2.67 7 -2.34 7 -2 7 C-2 6.34 -2 5.68 -2 5 C-4.31 5.33 -6.62 5.66 -9 6 C-7.875 4.5 -7.875 4.5 -6 3 C-2.8125 2.8125 -2.8125 2.8125 0 3 C-0.33 2.67 -0.66 2.34 -1 2 C-0.67 1.34 -0.34 0.68 0 0 Z " fill="#595959" transform="translate(175,99)"/>
<path d="M0 0 C0.96807139 2.58959097 1.05117891 3.8283374 0.25 6.515625 C-2.33155134 12.16276855 -5.05415034 16.74450589 -9.3515625 21.24609375 C-11.0569405 22.99241762 -11.0569405 22.99241762 -12.54296875 25.08203125 C-14.38539048 27.50731025 -16.58096881 29.1693818 -19 31 C-19.66 30.67 -20.32 30.34 -21 30 C-20.43410156 29.45730469 -19.86820313 28.91460937 -19.28515625 28.35546875 C-18.55167969 27.64003906 -17.81820312 26.92460937 -17.0625 26.1875 C-15.96615234 25.12595703 -15.96615234 25.12595703 -14.84765625 24.04296875 C-12.79165354 22.04463837 -12.79165354 22.04463837 -12 19 C-11.11054688 18.15695313 -11.11054688 18.15695313 -10.203125 17.296875 C-7.306996 14.27750647 -5.64064065 10.95425521 -3.75 7.25 C-3.38648438 6.55261719 -3.02296875 5.85523438 -2.6484375 5.13671875 C-1.75893803 3.42794346 -0.87854133 1.71443502 0 0 Z " fill="#CCCCCC" transform="translate(246,217)"/>
<path d="M0 0 C0.33 0.66 0.66 1.32 1 2 C4.3 1.34 7.6 0.68 11 0 C11 0.99 11 1.98 11 3 C11.99 2.67 12.98 2.34 14 2 C15.9375 1.83203125 15.9375 1.83203125 18 1.8125 C18.680625 1.79832031 19.36125 1.78414063 20.0625 1.76953125 C22 2 22 2 25 4 C24.01 5.32 23.02 6.64 22 8 C22 7.01 22 6.02 22 5 C20.72125 5.185625 19.4425 5.37125 18.125 5.5625 C14.25 6.125 14.25 6.125 12 5 C11.67 5.99 11.34 6.98 11 8 C11 7.01 11 6.02 11 5 C10.34 5 9.68 5 9 5 C8.67 5.66 8.34 6.32 8 7 C7.67 6.67 7.34 6.34 7 6 C5.00041636 5.95919217 2.99954746 5.95745644 1 6 C0.67 4.02 0.34 2.04 0 0 Z " fill="#EFEFEF" transform="translate(205,84)"/>
<path d="M0 0 C5.61762261 5.18549779 9.85404922 11.62161418 14 18 C11 18 11 18 9 17 C8.67 18.32 8.34 19.64 8 21 C4.96790143 17.53220398 3.68139764 13.69261067 2.3125 9.375 C2.08755859 8.694375 1.86261719 8.01375 1.63085938 7.3125 C0 2.29599639 0 2.29599639 0 0 Z " fill="#BBBBBB" transform="translate(81,65)"/>
<path d="M0 0 C0.8125 1.63671875 0.8125 1.63671875 1 4 C-0.59994977 6.1484174 -2.13231447 7.92398637 -4 9.8125 C-4.50893799 10.34512451 -5.01787598 10.87774902 -5.54223633 11.42651367 C-7.01646124 12.96291455 -8.50622071 14.48264299 -10 16 C-10.66386719 16.6909375 -11.32773438 17.381875 -12.01171875 18.09375 C-16.93864542 23.14700812 -22.11965528 28.07977019 -28 32 C-26.66420352 29.02363795 -25.20765397 26.96048142 -22.875 24.6875 C-22.25753906 24.08421875 -21.64007813 23.4809375 -21.00390625 22.859375 C-18.98796263 20.98883082 -16.91300781 19.21213464 -14.8125 17.4375 C-11.50848011 14.58920699 -9.34187508 11.70167351 -7 8 C-4.73041857 5.27551336 -2.37712408 2.63086204 0 0 Z " fill="#797979" transform="translate(186,196)"/>
<path d="M0 0 C1.73662334 3.22515763 2.8905928 6.51329166 4 10 C5.32 9.67 6.64 9.34 8 9 C8.66 10.32 9.32 11.64 10 13 C8.68 13 7.36 13 6 13 C9.3 13.66 12.6 14.32 16 15 C16 15.33 16 15.66 16 16 C6.30871212 16.57007576 6.30871212 16.57007576 2 13 C-0.644973 10.13461258 -2.42194191 7.9018921 -3 4 C-2.01 3.67 -1.02 3.34 0 3 C0 2.01 0 1.02 0 0 Z " fill="#292929" transform="translate(62,133)"/>
<path d="M0 0 C-5.14977665 5.14977665 -11.97100566 7.92676222 -19.4140625 8.03515625 C-21.3125 7.75 -21.3125 7.75 -24 7 C-24.33 5.68 -24.66 4.36 -25 3 C-23.783125 3.0825 -22.56625 3.165 -21.3125 3.25 C-15.76616538 3.29408851 -11.01035135 1.59937866 -5.8203125 -0.22265625 C-3 -1 -3 -1 0 0 Z " fill="#A6A6A6" transform="translate(89,148)"/>
<path d="M0 0 C1.92253384 1.30236163 3.45072086 2.52836504 4.9375 4.3125 C4.9375 4.9725 4.9375 5.6325 4.9375 6.3125 C1.9675 7.6325 -1.0025 8.9525 -4.0625 10.3125 C-5.625 7.5 -5.625 7.5 -7.0625 4.3125 C-6.0625 1.3125 -6.0625 1.3125 -4.25 0 C-2.0625 -0.6875 -2.0625 -0.6875 0 0 Z " fill="#E8E8E8" transform="translate(56.0625,111.6875)"/>
<path d="M0 0 C0.33 0.66 0.66 1.32 1 2 C2.32 2 3.64 2 5 2 C5.33 3.65 5.66 5.3 6 7 C7.98 5.35 9.96 3.7 12 2 C12.33 2.99 12.66 3.98 13 5 C11.68 5.99 10.36 6.98 9 8 C9.74359673 13.55053286 9.74359673 13.55053286 11 19 C8.66475218 16.74259377 6.81294927 14.7194239 5 12 C3.68 12.33 2.36 12.66 1 13 C1.20625 12.0925 1.4125 11.185 1.625 10.25 C2.02449578 6.78770325 1.69369481 5.88924409 0 3 C0 2.01 0 1.02 0 0 Z " fill="#212121" transform="translate(62,93)"/>
<path d="M0 0 C2.43403888 2.36642669 4.75067569 4.67329918 6.8125 7.375 C9.38035121 10.45642145 12.27524059 12.83878894 15.390625 15.3515625 C17 17 17 17 17 20 C14.71875 20.28125 14.71875 20.28125 12 20 C10.15625 18.09375 10.15625 18.09375 8.5 15.5 C7.91089844 14.5925 7.32179688 13.685 6.71484375 12.75 C6.14894531 11.8425 5.58304687 10.935 5 10 C4.48566406 9.21625 3.97132812 8.4325 3.44140625 7.625 C0 2.32152975 0 2.32152975 0 0 Z " fill="#B4B4B4" transform="translate(98,77)"/>
<path d="M0 0 C0.33 0 0.66 0 1 0 C1.11069824 0.56920166 1.22139648 1.13840332 1.33544922 1.72485352 C1.84550444 4.33802403 2.36021829 6.95025665 2.875 9.5625 C3.04902344 10.45775391 3.22304688 11.35300781 3.40234375 12.27539062 C4.18601879 16.23730332 4.99261845 20.13672952 6.1640625 24.00390625 C7 27 7 27 6.5 29.375 C5.7274149 33.4310718 6.96092963 37.05840248 8 41 C6 40 6 40 5.25390625 37.98046875 C3.59512706 31.27975055 2.36417912 24.57049472 1.3125 17.75 C1.18109619 16.91106201 1.04969238 16.07212402 0.91430664 15.20776367 C0.1606873 10.08021667 -0.12537222 5.18205191 0 0 Z " fill="#767676" transform="translate(13,189)"/>
<path d="M0 0 C1.9375 0.3125 1.9375 0.3125 4 1 C5.04449911 4.13349732 4.93423645 4.98968256 4 8 C2.68 7.67 1.36 7.34 0 7 C-0.144375 7.969375 -0.28875 8.93875 -0.4375 9.9375 C-1 13 -1 13 -2 14 C-2.33 14.66 -2.66 15.32 -3 16 C-3.66 16.33 -4.32 16.66 -5 17 C-5.93285227 13.35339566 -6.34173639 11.65375657 -4.5625 8.25 C-4.046875 7.5075 -3.53125 6.765 -3 6 C-3 5.34 -3 4.68 -3 4 C-1.68 3.67 -0.36 3.34 1 3 C0.67 2.01 0.34 1.02 0 0 Z " fill="#151515" transform="translate(160,94)"/>
<path d="M0 0 C0.66 0 1.32 0 2 0 C3.75848463 2.19513538 5.39106817 4.38672748 7 6.6875 C7.45117188 7.31333984 7.90234375 7.93917969 8.3671875 8.58398438 C10.74450408 11.94247156 12.6755003 15.06412873 14 19 C12.35 19 10.7 19 9 19 C8.60167969 18.19175781 8.20335937 17.38351563 7.79296875 16.55078125 C7.26316406 15.48214844 6.73335937 14.41351563 6.1875 13.3125 C5.66542969 12.25675781 5.14335937 11.20101562 4.60546875 10.11328125 C3.05710232 7.01630338 3.05710232 7.01630338 1.30078125 4.23046875 C0 2 0 2 0 0 Z " fill="#B8B8B8" transform="translate(156,72)"/>
<path d="M0 0 C2.74086056 -0.22223194 4.43963721 -0.34781139 6.8125 1.125 C8.49106106 3.77535957 8.20450238 5.93246424 8 9 C7.01 9 6.02 9 5 9 C4.01 9.33 3.02 9.66 2 10 C-0.125 9.25 -0.125 9.25 -2 8 C-2.33 7.01 -2.66 6.02 -3 5 C-2.67 4.34 -2.34 3.68 -2 3 C-1.01 3.33 -0.02 3.66 1 4 C0.67 4.99 0.34 5.98 0 7 C0.99 7 1.98 7 3 7 C2.42547254 3.06924356 2.42547254 3.06924356 0 0 Z " fill="#ACACAC" transform="translate(73,126)"/>
<path d="M0 0 C7.64516504 0 10.8967215 1.9833069 16.34765625 7.28515625 C16.89292969 7.85105469 17.43820313 8.41695312 18 9 C17.67 9.66 17.34 10.32 17 11 C16.443125 10.38125 15.88625 9.7625 15.3125 9.125 C12.92187402 6.92820855 10.99562527 6.13347983 8 5 C7.67 4.34 7.34 3.68 7 3 C4.36 3.33 1.72 3.66 -1 4 C-0.67 4.99 -0.34 5.98 0 7 C-3.3 7.33 -6.6 7.66 -10 8 C-10.33 7.34 -10.66 6.68 -11 6 C-7.535 5.505 -7.535 5.505 -4 5 C-4.33 4.01 -4.66 3.02 -5 2 C-4.34 1.67 -3.68 1.34 -3 1 C-2.01 1.33 -1.02 1.66 0 2 C0 1.34 0 0.68 0 0 Z " fill="#A0A0A0" transform="translate(77,110)"/>
<path d="M0 0 C0.99 0.33 1.98 0.66 3 1 C2.74863281 1.88751953 2.74863281 1.88751953 2.4921875 2.79296875 C0.85701888 9.03306515 0.85701888 9.03306515 3 15 C1.35 15.33 -0.3 15.66 -2 16 C-2.33 15.01 -2.66 14.02 -3 13 C-3.66 13 -4.32 13 -5 13 C-5.33 11.02 -5.66 9.04 -6 7 C-5.01 7 -4.02 7 -3 7 C-3.33 6.34 -3.66 5.68 -4 5 C-3.34 5 -2.68 5 -2 5 C-1.34 3.35 -0.68 1.7 0 0 Z " fill="#383838" transform="translate(160,101)"/>
<path d="M0 0 C0.66 0.66 1.32 1.32 2 2 C0.02 2.33 -1.96 2.66 -4 3 C-3.46375 3.474375 -2.9275 3.94875 -2.375 4.4375 C-0.23305347 8.42930944 -1.7579889 11.81826477 -3 16 C-4.5 14.75 -4.5 14.75 -6 13 C-6 11.68 -6 10.36 -6 9 C-6.66 9 -7.32 9 -8 9 C-8.33 7.68 -8.66 6.36 -9 5 C-6.14693203 2.67527795 -3.45925163 1.2491742 0 0 Z " fill="#4A4A4A" transform="translate(61,117)"/>
<path d="M0 0 C0.99 0.495 0.99 0.495 2 1 C2 1.66 2 2.32 2 3 C2.66 3 3.32 3 4 3 C4.14050781 3.86367187 4.28101563 4.72734375 4.42578125 5.6171875 C4.79172819 7.77303821 5.18239918 9.92494037 5.60546875 12.0703125 C5.79753906 13.07835937 5.98960938 14.08640625 6.1875 15.125 C6.38730469 16.13820312 6.58710937 17.15140625 6.79296875 18.1953125 C7.01576397 21.21355722 6.61386881 22.49220386 5 25 C4.35080494 22.14656123 3.70555821 19.29232245 3.0625 16.4375 C2.88009766 15.63763672 2.69769531 14.83777344 2.50976562 14.01367188 C1.46364063 9.35366053 0.60417471 4.73800166 0 0 Z " fill="#A0A0A0" transform="translate(45,120)"/>
<path d="M0 0 C0.33 1.32 0.66 2.64 1 4 C1.66 4 2.32 4 3 4 C3 6.64 3 9.28 3 12 C0.36 12 -2.28 12 -5 12 C-5 10.68 -5 9.36 -5 8 C-4.34 8 -3.68 8 -3 8 C-1.92474806 5.34771188 -0.90543849 2.71631546 0 0 Z " fill="#E5E5E5" transform="translate(136,244)"/>
<path d="M0 0 C3.43668423 3.43668423 5.6767505 8.30625414 6.2578125 13.1484375 C6.25120248 14.76789326 6.13733072 16.38636406 6 18 C4.68 18 3.36 18 2 18 C0.77100654 11.93184478 -0.27560214 6.20104812 0 0 Z " fill="#EBEBEB" transform="translate(112,238)"/>
<path d="M0 0 C2.625 0.375 2.625 0.375 5 1 C3.87548273 3.9719385 2.77706209 6.33440687 1 9 C-2.79588866 8.45773019 -4.47211993 6.79872437 -7 4 C-5.824375 3.566875 -5.824375 3.566875 -4.625 3.125 C-1.90328368 2.15087746 -1.90328368 2.15087746 0 0 Z " fill="#DBDBDB" transform="translate(149,94)"/>
<path d="M0 0 C1.65 0.33 3.3 0.66 5 1 C5.33 2.98 5.66 4.96 6 7 C5.67 7 5.34 7 5 7 C4.79913557 10.71599191 4.8480563 11.77208445 7 15 C6.01 15.33 5.02 15.66 4 16 C2.02 12.535 2.02 12.535 0 9 C-0.33 9 -0.66 9 -1 9 C-1 7.02 -1 5.04 -1 3 C-0.34 3 0.32 3 1 3 C0.67 2.01 0.34 1.02 0 0 Z " fill="#575757" transform="translate(62,127)"/>
<path d="M0 0 C1.84423918 2.76635878 2.50481826 4.38750924 3.2890625 7.52734375 C3.50820313 8.40197266 3.72734375 9.27660156 3.953125 10.17773438 C4.17484375 11.08845703 4.3965625 11.99917969 4.625 12.9375 C4.85445312 13.84435547 5.08390625 14.75121094 5.3203125 15.68554688 C6.29701767 19.63597047 7 22.89609249 7 27 C7.66 27.33 8.32 27.66 9 28 C8.34 28.66 7.68 29.32 7 30 C2.81620194 20.59176376 -0.72709241 10.42165786 0 0 Z " fill="#7A7A7A" transform="translate(16,191)"/>
<path d="M0 0 C2.6997712 2.6997712 4.02446022 5.89996702 5.625 9.3125 C5.94984375 9.97701172 6.2746875 10.64152344 6.609375 11.32617188 C8.34802647 15.01897993 9.42817366 17.90063365 9 22 C6 21 6 21 4.90234375 19.1015625 C2.45114692 12.8098265 0.96526808 6.68067122 0 0 Z " fill="#5F5F5F" transform="translate(80,228)"/>
<path d="M0 0 C0.99 1.32 1.98 2.64 3 4 C2.67 4.66 2.34 5.32 2 6 C0.35 6 -1.3 6 -3 6 C-3 6.66 -3 7.32 -3 8 C-4.98 7.34 -6.96 6.68 -9 6 C-9 5.01 -9 4.02 -9 3 C-6.03 2.01 -3.06 1.02 0 0 Z " fill="#696969" transform="translate(174,110)"/>
<path d="M0 0 C0.33 0.66 0.66 1.32 1 2 C1.66 2.33 2.32 2.66 3 3 C2.319375 3.639375 1.63875 4.27875 0.9375 4.9375 C-2.77342473 8.62709757 -5.8501349 12.83346374 -9 17 C-10.08007717 13.7597685 -10.2153669 13.06922148 -9 10 C-6.93359375 7.421875 -6.93359375 7.421875 -4.4375 4.75 C-3.61121094 3.85796875 -2.78492188 2.9659375 -1.93359375 2.046875 C-1.29550781 1.37140625 -0.65742188 0.6959375 0 0 Z " fill="#252525" transform="translate(197,181)"/>
<path d="M0 0 C1.125 2.3125 1.125 2.3125 2 5 C1.01 6.485 1.01 6.485 0 8 C-3.93673644 6.68775452 -6.22719294 5.08089673 -9 2 C-5.5647952 -0.29013653 -4.014669 -0.17842973 0 0 Z " fill="#E0E0E0" transform="translate(84,112)"/>
<path d="M0 0 C0.33 0 0.66 0 1 0 C1.05411124 2.41696872 1.09372278 4.83271787 1.125 7.25 C1.15013672 8.27287109 1.15013672 8.27287109 1.17578125 9.31640625 C1.21213482 13.0608235 1.07944349 15.82352727 -1 19 C-1.66 19 -2.32 19 -3 19 C-3.35368021 11.87399867 -2.95671348 6.52940894 0 0 Z " fill="#A3A3A3" transform="translate(216,205)"/>
<path d="M0 0 C1.95825873 -0.02694851 3.91662226 -0.04637218 5.875 -0.0625 C6.96554688 -0.07410156 8.05609375 -0.08570312 9.1796875 -0.09765625 C12 0 12 0 14 1 C14 1.66 14 2.32 14 3 C14.66 3 15.32 3 16 3 C16 3.66 16 4.32 16 5 C14.02 5 12.04 5 10 5 C10 4.01 10 3.02 10 2 C9.34 2.66 8.68 3.32 8 4 C8 3.34 8 2.68 8 2 C7.34 2 6.68 2 6 2 C5.67 2.66 5.34 3.32 5 4 C3.35 4 1.7 4 0 4 C0 2.68 0 1.36 0 0 Z " fill="#848484" transform="translate(215,89)"/>
<path d="M0 0 C2.37239812 0.94895925 3.78365061 1.72464623 5.375 3.75 C6.26585358 6.95707288 5.23212333 8.98814298 4 12 C3.01 11.67 2.02 11.34 1 11 C-0.47666292 7.50970582 -0.07164685 3.72563614 0 0 Z " fill="#D1D1D1" transform="translate(117,235)"/>
<path d="M0 0 C0.33 0 0.66 0 1 0 C1.53093324 1.93475671 2.04942317 3.87293155 2.5625 5.8125 C2.85253906 6.89144531 3.14257812 7.97039062 3.44140625 9.08203125 C4 12 4 12 3 15 C2.67 13.68 2.34 12.36 2 11 C1.01 11 0.02 11 -1 11 C-1 11.66 -1 12.32 -1 13 C-3.31 12.67 -5.62 12.34 -8 12 C-7.236875 11.505 -6.47375 11.01 -5.6875 10.5 C-2.17518641 7.23273154 -1.43675644 4.5371256 0 0 Z " fill="#838383" transform="translate(186,113)"/>
<path d="M0 0 C0.33 0.99 0.66 1.98 1 3 C3.97 3.495 3.97 3.495 7 4 C4.53721199 6.46278801 2.29323018 6.99771255 -1 8 C0.32 9.32 1.64 10.64 3 12 C0.21788056 11.62403791 -1.5879284 11.32681541 -3.8125 9.5625 C-5 8 -5 8 -5 6 C-4.34 6 -3.68 6 -3 6 C-2.67 4.68 -2.34 3.36 -2 2 C-1.34 2 -0.68 2 0 2 C0 1.34 0 0.68 0 0 Z " fill="#B3B3B3" transform="translate(166,106)"/>
<path d="M0 0 C0.99 0.33 1.98 0.66 3 1 C3.32613618 5.67461851 2.70582788 8.16674383 0 12 C-0.99 11.67 -1.98 11.34 -3 11 C-2.69078116 9.54096742 -2.37751201 8.08279278 -2.0625 6.625 C-1.88847656 5.81289062 -1.71445313 5.00078125 -1.53515625 4.1640625 C-1 2 -1 2 0 0 Z " fill="#0C0C0C" transform="translate(88,129)"/>
<path d="M0 0 C-0.33 0.99 -0.66 1.98 -1 3 C-0.34 3.33 0.32 3.66 1 4 C0.01 4 -0.98 4 -2 4 C-2 4.66 -2 5.32 -2 6 C-4.38564077 5.42415568 -6.66682784 4.77772405 -9 4 C-9 2.68 -9 1.36 -9 0 C-5.67465243 -1.10844919 -3.37817425 -0.84454356 0 0 Z " fill="#BDBDBD" transform="translate(211,77)"/>
<path d="M0 0 C4.29 0 8.58 0 13 0 C13 1.32 13 2.64 13 4 C9.04 4 5.08 4 1 4 C0.67 2.68 0.34 1.36 0 0 Z " fill="#8A8A8A" transform="translate(41,246)"/>
<path d="M0 0 C1.32 0.33 2.64 0.66 4 1 C4.103125 1.639375 4.20625 2.27875 4.3125 2.9375 C4.539375 3.618125 4.76625 4.29875 5 5 C5.99 5.33 6.98 5.66 8 6 C6.3603125 6.4021875 6.3603125 6.4021875 4.6875 6.8125 C1.38307337 7.87663739 0.05039578 8.34654664 -2 11 C-1.835 10.236875 -1.67 9.47375 -1.5 8.6875 C-0.90854604 5.96403764 -0.90854604 5.96403764 -1 3 C-0.67 2.01 -0.34 1.02 0 0 Z " fill="#585858" transform="translate(165,95)"/>
<path d="M0 0 C2.71224618 1.61268692 5.37352812 3.24901874 8 5 C4.25 8.875 4.25 8.875 2 10 C-0.29379749 6.55930376 -1 5.27709699 -1 1 C-0.67 0.67 -0.34 0.34 0 0 Z " fill="#EBEBEB" transform="translate(93,112)"/>
<path d="M0 0 C0.9590625 0.2784375 0.9590625 0.2784375 1.9375 0.5625 C2.9584375 0.7790625 2.9584375 0.7790625 4 1 C4.33 0.67 4.66 0.34 5 0 C6.99958364 -0.04080783 9.00045254 -0.04254356 11 0 C11.33 1.32 11.66 2.64 12 4 C10.39592672 4.02708567 8.7917215 4.04643483 7.1875 4.0625 C5.84751953 4.07990234 5.84751953 4.07990234 4.48046875 4.09765625 C2 4 2 4 -1 3 C-0.67 2.01 -0.34 1.02 0 0 Z " fill="#808080" transform="translate(213,77)"/>
<path d="M0 0 C3.37218639 3.11278743 5.97287886 6.57870908 8.6328125 10.29296875 C9.90694728 12.12787013 9.90694728 12.12787013 12 13 C12 13.66 12 14.32 12 15 C10.35 15 8.7 15 7 15 C5.82823482 12.87767021 4.66245215 10.75242209 3.5 8.625 C3.16613281 8.02171875 2.83226563 7.4184375 2.48828125 6.796875 C0 2.2265625 0 2.2265625 0 0 Z " fill="#9C9C9C" transform="translate(103,62)"/>
<path d="M0 0 C0.66 0.33 1.32 0.66 2 1 C1.34 1.66 0.68 2.32 0 3 C-0.20225023 7.17983803 -0.33650858 10.99047425 1 15 C-2.875 13.125 -2.875 13.125 -4 12 C-4.59479554 4.74349442 -4.59479554 4.74349442 -2 1.5 C-1.34 1.005 -0.68 0.51 0 0 Z " fill="#ADADAD" transform="translate(70,127)"/>
<path d="M0 0 C-1.32 1.65 -2.64 3.3 -4 5 C-4.66 4.67 -5.32 4.34 -6 4 C-5.67 3.67 -5.34 3.34 -5 3 C-10.61 3 -16.22 3 -22 3 C-22 2.67 -22 2.34 -22 2 C-19.45887768 1.66198848 -16.91723254 1.32946621 -14.375 1 C-13.66214844 0.90460938 -12.94929687 0.80921875 -12.21484375 0.7109375 C-8.11178391 0.18393899 -4.14754258 -0.10466984 0 0 Z " fill="#A4A4A4" transform="translate(164,182)"/>
<path d="M0 0 C-0.639375 0.45375 -1.27875 0.9075 -1.9375 1.375 C-4.09702406 2.83921726 -4.09702406 2.83921726 -5 5 C-5.928125 4.835 -6.85625 4.67 -7.8125 4.5 C-10.95621353 3.92251612 -10.95621353 3.92251612 -14 4 C-13.27734375 2.05078125 -13.27734375 2.05078125 -12 0 C-9.94140625 -0.64453125 -9.94140625 -0.64453125 -7.5625 -0.8125 C-6.78003906 -0.88082031 -5.99757812 -0.94914062 -5.19140625 -1.01953125 C-3 -1 -3 -1 0 0 Z " fill="#262626" transform="translate(175,118)"/>
<path d="M0 0 C1.051875 0.433125 1.051875 0.433125 2.125 0.875 C5.03596963 2.05519478 5.03596963 2.05519478 8.25 3 C11 4 11 4 12 6 C12.04022391 8.3329866 12.04320247 10.66706666 12 13 C11.67 13 11.34 13 11 13 C10.67 11.35 10.34 9.7 10 8 C8.35 8.33 6.7 8.66 5 9 C5 7.68 5 6.36 5 5 C2.58333229 2.24958334 2.58333229 2.24958334 0 0 Z " fill="#5F5F5F" transform="translate(141,99)"/>
<path d="M0 0 C2 1 2 1 2.88671875 3.1796875 C3.15097656 4.06914062 3.41523437 4.95859375 3.6875 5.875 C3.95949219 6.75929687 4.23148437 7.64359375 4.51171875 8.5546875 C5 11 5 11 4 14 C3.01 14.495 3.01 14.495 2 15 C1.50141665 12.7781577 1.00588859 10.55572681 0.515625 8.33203125 C0.12226508 6.55297161 -0.28050244 4.77598936 -0.6875 3 C-0.790625 2.34 -0.89375 1.68 -1 1 C-0.67 0.67 -0.34 0.34 0 0 Z " fill="#0A0A0A" transform="translate(116,241)"/>
<path d="M0 0 C0.33 0 0.66 0 1 0 C0.63495936 5.66442374 -0.0554321 10.00703705 -3 15 C-4.02956962 11.80176245 -3.94507949 9.63422687 -3.1875 6.375 C-3.01605469 5.59898437 -2.84460938 4.82296875 -2.66796875 4.0234375 C-2 2 -2 2 0 0 Z " fill="#161616" transform="translate(217,229)"/>
<path d="M0 0 C5.75 0.875 5.75 0.875 8 2 C9.32860925 2.35169068 10.66158328 2.68770276 12 3 C8.55930376 5.29379749 7.27709699 6 3 6 C3 5.34 3 4.68 3 4 C1.68 3.67 0.36 3.34 -1 3 C-0.67 2.01 -0.34 1.02 0 0 Z " fill="#525252" transform="translate(71,140)"/>
<path d="M0 0 C0.66 0.33 1.32 0.66 2 1 C1.80949082 9.10529962 1.80949082 9.10529962 -1.375 12.625 C-2.24125 13.07875 -3.1075 13.5325 -4 14 C-4.99 13.67 -5.98 13.34 -7 13 C-6.34 13 -5.68 13 -5 13 C-4.71125 12.38125 -4.4225 11.7625 -4.125 11.125 C-3 9 -3 9 -1 7 C-0.59952556 4.67724823 -0.2602896 2.34260643 0 0 Z " fill="#191919" transform="translate(184,110)"/>
<path d="M0 0 C0.66 0.66 1.32 1.32 2 2 C2.680625 2.45375 3.36125 2.9075 4.0625 3.375 C6 5 6 5 6.9375 6.9375 C7 9 7 9 4 13 C2.35 9.04 0.7 5.08 -1 1 C-0.67 0.67 -0.34 0.34 0 0 Z " fill="#D0D0D0" transform="translate(90,87)"/>
<path d="M0 0 C0.33 0 0.66 0 1 0 C1.28571429 8.57142857 1.28571429 8.57142857 -1 12 C-1.33 11.34 -1.66 10.68 -2 10 C-3.485 12.475 -3.485 12.475 -5 15 C-5.33 14.34 -5.66 13.68 -6 13 C-5.10333658 10.75689987 -4.10853317 8.55245679 -3.0625 6.375 C-2.49660156 5.18648437 -1.93070313 3.99796875 -1.34765625 2.7734375 C-0.90292969 1.85820312 -0.45820313 0.94296875 0 0 Z " fill="#D0D0D0" transform="translate(238,212)"/>
<path d="M0 0 C1.32 0 2.64 0 4 0 C4.66 1.32 5.32 2.64 6 4 C2.04 4 -1.92 4 -6 4 C-6 3.01 -6 2.02 -6 1 C-4.7934375 1.0309375 -4.7934375 1.0309375 -3.5625 1.0625 C-1.06645115 1.29633621 -1.06645115 1.29633621 0 0 Z " fill="#818181" transform="translate(39,252)"/>
<path d="M0 0 C0.66 0.99 1.32 1.98 2 3 C1.1015625 5.91796875 1.1015625 5.91796875 -0.375 9.1875 C-0.85710937 10.27417969 -1.33921875 11.36085937 -1.8359375 12.48046875 C-2.41214844 13.72763672 -2.41214844 13.72763672 -3 15 C-3.99 15 -4.98 15 -6 15 C-5.19093245 12.68624595 -4.37793083 10.37401052 -3.5625 8.0625 C-3.33240234 7.40314453 -3.10230469 6.74378906 -2.86523438 6.06445312 C-1.11328125 1.11328125 -1.11328125 1.11328125 0 0 Z " fill="#949494" transform="translate(221,225)"/>
<path d="M0 0 C2.00384991 3.00577487 3.26119742 5.84977264 4.625 9.1875 C5.07101563 10.27417969 5.51703125 11.36085938 5.9765625 12.48046875 C6.31429687 13.31191406 6.65203125 14.14335938 7 15 C6.01 15.99 5.02 16.98 4 18 C3.32678716 15.75194998 2.66165877 13.50147776 2 11.25 C1.62875 9.99703125 1.2575 8.7440625 0.875 7.453125 C0 4 0 4 0 0 Z " fill="#B4B4B4" transform="translate(52,75)"/>
<path d="M0 0 C4.18423892 3.50897269 8.19588166 7.08060535 12 11 C9.73828125 11.2734375 9.73828125 11.2734375 7 11 C4.98046875 9.1015625 4.98046875 9.1015625 3.1875 6.625 C2.58292969 5.81289062 1.97835937 5.00078125 1.35546875 4.1640625 C0 2 0 2 0 0 Z " fill="#A5A5A5" transform="translate(110,63)"/>
<path d="M0 0 C1.13891534 3.41674601 0.83543755 5.06177265 0.1875 8.5625 C0.01605469 9.53316406 -0.15539062 10.50382813 -0.33203125 11.50390625 C-1 14 -1 14 -3 16 C-3.66 15.34 -4.32 14.68 -5 14 C-4.35799564 11.85301798 -3.71129254 9.70744047 -3.0625 7.5625 C-2.70285156 6.36753906 -2.34320313 5.17257813 -1.97265625 3.94140625 C-1 1 -1 1 0 0 Z " fill="#AAAAAA" transform="translate(205,229)"/>
<path d="M0 0 C0.99 0.33 1.98 0.66 3 1 C3.875 2.875 3.875 2.875 4 5 C2.5625 6.75 2.5625 6.75 1 8 C-0.32 7.34 -1.64 6.68 -3 6 C-2.42655063 3.13275314 -2.1385485 2.1385485 0 0 Z " fill="#232323" transform="translate(84,138)"/>
<path d="M0 0 C0.66 0 1.32 0 2 0 C2 0.66 2 1.32 2 2 C2.8971875 2.37125 2.8971875 2.37125 3.8125 2.75 C6.28647521 4.16370012 7.43370255 5.65055383 9 8 C3.56603774 7.39622642 3.56603774 7.39622642 1.125 5.6875 C0 4 0 4 0 0 Z " fill="#686868" transform="translate(103,167)"/>
<path d="M0 0 C0.7425 0.0825 1.485 0.165 2.25 0.25 C2.58 1.24 2.91 2.23 3.25 3.25 C-0.53187881 5.08691257 -2.69568308 5.40837626 -6.75 4.25 C-3.42692308 0.31153846 -3.42692308 0.31153846 0 0 Z " fill="#DADADA" transform="translate(185.75,136.75)"/>
<path d="M0 0 C6.75 0.75 6.75 0.75 9 3 C9.56520003 5.65537372 9.73788198 8.29144713 10 11 C7.21249856 9.60624928 7.10733713 7.83755139 6 5 C3.8614515 2.8614515 2.86724686 2.57344937 0 2 C0 1.34 0 0.68 0 0 Z " fill="#202020" transform="translate(73,123)"/>
<path d="M0 0 C-0.33 0.66 -0.66 1.32 -1 2 C-4.23097953 2.86159454 -6.22486274 3.30597523 -9.375 2.0625 C-9.91125 1.711875 -10.4475 1.36125 -11 1 C-11 0.34 -11 -0.32 -11 -1 C-6.70700357 -2.26264601 -4.12168689 -1.62950412 0 0 Z " fill="#777777" transform="translate(217,97)"/>
<path d="M0 0 C3.04049801 3.64859761 4.96518762 7.7444533 7 12 C5.68 12.33 4.36 12.66 3 13 C2.49487756 11.39743892 1.99608373 9.79288208 1.5 8.1875 C1.2215625 7.29417969 0.943125 6.40085937 0.65625 5.48046875 C0 3 0 3 0 0 Z " fill="#BBBBBB" transform="translate(41,88)"/>
<path d="M0 0 C0.8125 1.625 0.8125 1.625 1 4 C-2.73831776 9.60747664 -2.73831776 9.60747664 -6.8125 10.875 C-7.8953125 10.936875 -7.8953125 10.936875 -9 11 C-8.60167969 10.54109375 -8.20335937 10.0821875 -7.79296875 9.609375 C-5.08857938 6.47728415 -2.42008229 3.36122541 0 0 Z " fill="#5C5C5C" transform="translate(186,196)"/>
<path d="M0 0 C0.33 0.66 0.66 1.32 1 2 C1.66 2 2.32 2 3 2 C3 1.34 3 0.68 3 0 C4.65 0 6.3 0 8 0 C8 1.32 8 2.64 8 4 C3.545 4.495 3.545 4.495 -1 5 C-0.67 3.35 -0.34 1.7 0 0 Z " fill="#848484" transform="translate(201,89)"/>
<path d="M0 0 C-0.165 0.763125 -0.33 1.52625 -0.5 2.3125 C-1.09145396 5.03596236 -1.09145396 5.03596236 -1 8 C-1.99 8 -2.98 8 -4 8 C-4 7.01 -4 6.02 -4 5 C-4.99 4.34 -5.98 3.68 -7 3 C-7.99 3.495 -7.99 3.495 -9 4 C-8.67 3.01 -8.34 2.02 -8 1 C-5.07175348 0.02391783 -3.04386724 -0.08226668 0 0 Z " fill="#525252" transform="translate(77,125)"/>
<path d="M0 0 C2.63978826 3.18595135 5.10498388 6.30970546 7 10 C6.67 10.66 6.34 11.32 6 12 C3.36 9.03 0.72 6.06 -2 3 C-1.34 2.01 -0.68 1.02 0 0 Z " fill="#2B2B2B" transform="translate(83,103)"/>
<path d="M0 0 C3.4180305 1.1393435 4.00348178 1.97410915 6.0625 4.8125 C6.56910156 5.49957031 7.07570313 6.18664062 7.59765625 6.89453125 C8.91619283 8.87417253 9.98998171 10.84948259 11 13 C6.47384007 9.32167983 2.60575001 5.58913637 -1 1 C-0.67 0.67 -0.34 0.34 0 0 Z " fill="#3A3A3A" transform="translate(108,96)"/>
<path d="M0 0 C2.79828356 0.38597015 3.8205884 0.80136573 5.75 2.9375 C7 5 7 5 7 7 C5.35 7 3.7 7 2 7 C1.34 4.69 0.68 2.38 0 0 Z " fill="#ABABAB" transform="translate(163,84)"/>
<path d="M0 0 C0.66 0 1.32 0 2 0 C3.625 2.5 3.625 2.5 5 5 C2 5 2 5 0 4 C-0.33 5.32 -0.66 6.64 -1 8 C-1.66 7.34 -2.32 6.68 -3 6 C-2.63318342 3.06546739 -2.13562754 2.13562754 0 0 Z " fill="#C2C2C2" transform="translate(90,78)"/>
<path d="M0 0 C3.05001831 3.66002197 7 9.07851471 7 14 C6.01 14.33 5.02 14.66 4 15 C3.32779649 13.06441401 2.66241923 11.12645628 2 9.1875 C1.62875 8.10855469 1.2575 7.02960938 0.875 5.91796875 C0 3 0 3 0 0 Z " fill="#A2A2A2" transform="translate(166,61)"/>
<path d="M0 0 C0.66 0 1.32 0 2 0 C2 3.3 2 6.6 2 10 C1.01 10 0.02 10 -1 10 C-1.02689216 8.52093108 -1.04634621 7.04172517 -1.0625 5.5625 C-1.07410156 4.73878906 -1.08570312 3.91507813 -1.09765625 3.06640625 C-1 1 -1 1 0 0 Z " fill="#CFCFCF" transform="translate(125,246)"/>
<path d="M0 0 C0.33 0.99 0.66 1.98 1 3 C1.66 3 2.32 3 3 3 C3.33 2.01 3.66 1.02 4 0 C5.26264601 4.29299643 4.62950412 6.87831311 3 11 C0.43383368 7.15075052 0.44902324 4.5650696 0 0 Z " fill="#393939" transform="translate(18,217)"/>
<path d="M0 0 C0.99 0.495 0.99 0.495 2 1 C2 1.66 2 2.32 2 3 C2.66 3 3.32 3 4 3 C4.6875 5.8125 4.6875 5.8125 5 9 C4.01 9.99 3.02 10.98 2 12 C1.34 8.04 0.68 4.08 0 0 Z " fill="#B8B8B8" transform="translate(45,120)"/>
<path d="M0 0 C4.75 0.875 4.75 0.875 7 2 C7 1.34 7 0.68 7 0 C7.99 0.33 8.98 0.66 10 1 C8.9375 2.5 8.9375 2.5 7 4 C3.3125 4.1875 3.3125 4.1875 0 4 C-0.33 3.34 -0.66 2.68 -1 2 C-0.67 1.34 -0.34 0.68 0 0 Z " fill="#0B0B0B" transform="translate(163,121)"/>
<path d="M0 0 C2.95749791 3.46741134 5.07848152 6.86873527 7 11 C6.01 11.99 5.02 12.98 4 14 C3.32739649 12.23141309 2.66211605 10.46003984 2 8.6875 C1.62875 7.70136719 1.2575 6.71523437 0.875 5.69921875 C0 3 0 3 0 0 Z " fill="#B3B3B3" transform="translate(59,74)"/>
<path d="M0 0 C0.66 0.66 1.32 1.32 2 2 C1.34 3.32 0.68 4.64 0 6 C-0.66 6 -1.32 6 -2 6 C-2 7.32 -2 8.64 -2 10 C-2.99 10 -3.98 10 -5 10 C-4.49701212 5.59885603 -2.91227269 3.28804981 0 0 Z " fill="#9D9D9D" transform="translate(133,246)"/>
<path d="M0 0 C1.32 0 2.64 0 4 0 C4 0.99 4 1.98 4 3 C4.66 3 5.32 3 6 3 C6 2.01 6 1.02 6 0 C6.66 0 7.32 0 8 0 C8.33 1.32 8.66 2.64 9 4 C5.7 4 2.4 4 -1 4 C-0.67 2.68 -0.34 1.36 0 0 Z " fill="#878787" transform="translate(47,252)"/>
<path d="M0 0 C2 2 2 2 2 5 C1.01 5.33 0.02 5.66 -1 6 C-2.66710346 7.49985609 -2.66710346 7.49985609 -4 9 C-6 8 -6 8 -7 7 C-7 6.34 -7 5.68 -7 5 C-6.01 4.67 -5.02 4.34 -4 4 C-3.34 4.33 -2.68 4.66 -2 5 C-1.34 3.35 -0.68 1.7 0 0 Z " fill="#5F5F5F" transform="translate(178,111)"/>
<path d="M0 0 C1.65 1.65 3.3 3.3 5 5 C3.68 5.99 2.36 6.98 1 8 C-1 6 -1 6 -1.1875 3.4375 C-1 1 -1 1 0 0 Z " fill="#C6C6C6" transform="translate(65,85)"/>
<path d="M0 0 C0.99 0.33 1.98 0.66 3 1 C-0.94366197 8.6056338 -0.94366197 8.6056338 -5 10 C-6.33821694 10.65680868 -7.67224489 11.32229166 -9 12 C-8.60167969 11.55269531 -8.20335937 11.10539063 -7.79296875 10.64453125 C-4.82015875 7.25220061 -2.1717806 3.98159776 0 0 Z " fill="#9E9E9E" transform="translate(234,236)"/>
<path d="M0 0 C0.33 0 0.66 0 1 0 C1 2.31 1 4.62 1 7 C1.66 7.33 2.32 7.66 3 8 C1.68 11.3 0.36 14.6 -1 18 C-2.08053255 13.67786978 -1.74913297 11.1121389 -1.0625 6.75 C-0.86785156 5.48671875 -0.67320312 4.2234375 -0.47265625 2.921875 C-0.31667969 1.95765625 -0.16070312 0.9934375 0 0 Z " fill="#484848" transform="translate(198,235)"/>
<path d="M0 0 C0.66 0.33 1.32 0.66 2 1 C-0.93718281 3.50204462 -3.12203531 4.72300252 -7 5 C-10.3125 4.0625 -10.3125 4.0625 -13 3 C-12.67 2.34 -12.34 1.68 -12 1 C-11.21753906 1.01160156 -10.43507813 1.02320313 -9.62890625 1.03515625 C-8.61699219 1.04417969 -7.60507813 1.05320313 -6.5625 1.0625 C-5.04849609 1.07990234 -5.04849609 1.07990234 -3.50390625 1.09765625 C-1.05978933 1.28612676 -1.05978933 1.28612676 0 0 Z " fill="#C0C0C0" transform="translate(135,207)"/>
<path d="M0 0 C3.3 0.33 6.6 0.66 10 1 C10.33 2.65 10.66 4.3 11 6 C6.49197399 4.74194623 3.5087188 3.09592835 0 0 Z " fill="#292929" transform="translate(109,192)"/>
<path d="M0 0 C0.66 0.33 1.32 0.66 2 1 C0.68 1.99 -0.64 2.98 -2 4 C-1.01 4 -0.02 4 1 4 C1 4.66 1 5.32 1 6 C-2 7 -2 7 -5 6 C-5 5.34 -5 4.68 -5 4 C-6.32 3.34 -7.64 2.68 -9 2 C-7.88625 1.855625 -6.7725 1.71125 -5.625 1.5625 C-2.17857953 1.21627965 -2.17857953 1.21627965 0 0 Z " fill="#404040" transform="translate(178,117)"/>
<path d="M0 0 C0.33 0 0.66 0 1 0 C1.19392201 5.52677733 0.7479503 9.75614911 -1 15 C-1.66 15 -2.32 15 -3 15 C-2 10 -1 5 0 0 Z " fill="#E9E9E9" transform="translate(227,220)"/>
<path d="M0 0 C1.9375 0.3125 1.9375 0.3125 4 1 C5.04449911 4.13349732 4.93423645 4.98968256 4 8 C1.525 7.01 1.525 7.01 -1 6 C-0.34 5.01 0.32 4.02 1 3 C0.67 2.01 0.34 1.02 0 0 Z " fill="#1D1D1D" transform="translate(160,94)"/>
<path d="M0 0 C2.50719458 2.32649587 4.32183601 4.82681521 6.1875 7.6875 C6.71730469 8.49574219 7.24710937 9.30398437 7.79296875 10.13671875 C8.39044922 11.05904297 8.39044922 11.05904297 9 12 C7.68 12 6.36 12 5 12 C4.16180842 10.37750059 3.3295884 8.75191503 2.5 7.125 C2.0359375 6.22007813 1.571875 5.31515625 1.09375 4.3828125 C0 2 0 2 0 0 Z " fill="#A9A9A9" transform="translate(77,90)"/>
<path d="M0 0 C0.33 0.99 0.66 1.98 1 3 C1.66 3 2.32 3 3 3 C2.46835452 7.78480933 1.76888381 8.23111619 -2 12 C-1.34 8.04 -0.68 4.08 0 0 Z " fill="#222222" transform="translate(237,224)"/>
<path d="M0 0 C0.99 0.33 1.98 0.66 3 1 C2.71758359 2.46015291 2.42373386 3.91809793 2.125 5.375 C1.96257812 6.18710938 1.80015625 6.99921875 1.6328125 7.8359375 C1 10 1 10 -1 12 C-1.02712066 10.56260487 -1.04645067 9.12506137 -1.0625 7.6875 C-1.07410156 6.88699219 -1.08570313 6.08648437 -1.09765625 5.26171875 C-1 3 -1 3 0 0 Z " fill="#161616" transform="translate(206,224)"/>
<path d="M0 0 C2.58926331 2.58926331 2.37398043 4.02705279 2.625 7.625 C2.69976562 8.62789062 2.77453125 9.63078125 2.8515625 10.6640625 C2.90054688 11.43492187 2.94953125 12.20578125 3 13 C2.34 13 1.68 13 1 13 C0.63631108 11.39796533 0.28438048 9.79325797 -0.0625 8.1875 C-0.25972656 7.29417969 -0.45695312 6.40085937 -0.66015625 5.48046875 C-1 3 -1 3 0 0 Z " fill="#222222" transform="translate(44,118)"/>
<path d="M0 0 C2.3125 -0.25 2.3125 -0.25 5 0 C6.8125 2 6.8125 2 8 4 C4.98968256 4.93423645 4.13349732 5.04449911 1 4 C0.3125 1.9375 0.3125 1.9375 0 0 Z " fill="#D5D5D5" transform="translate(108,92)"/>
<path d="M0 0 C2.11386464 2.11386464 2.97008322 3.79267603 4.1875 6.5 C4.55230469 7.2940625 4.91710937 8.088125 5.29296875 8.90625 C5.52628906 9.5971875 5.75960937 10.288125 6 11 C5.67 11.66 5.34 12.32 5 13 C4.34 13 3.68 13 3 13 C2.49487756 11.39743892 1.99608373 9.79288208 1.5 8.1875 C1.2215625 7.29417969 0.943125 6.40085938 0.65625 5.48046875 C0 3 0 3 0 0 Z " fill="#6F6F6F" transform="translate(80,228)"/>
<path d="M0 0 C-0.4682121 4.77576339 -1.24331998 8.04476345 -4 12 C-5.29922995 9.4015401 -4.81286289 8.24038549 -4.1875 5.4375 C-4.01605469 4.63183594 -3.84460938 3.82617188 -3.66796875 2.99609375 C-2.95693842 0.8713189 -2.40414441 0 0 0 Z " fill="#1A1A1A" transform="translate(230,227)"/>
<path d="M0 0 C0 3.3 0 6.6 0 10 C-0.99 9.67 -1.98 9.34 -3 9 C-3.33 6.36 -3.66 3.72 -4 1 C-1 0 -1 0 0 0 Z " fill="#555555" transform="translate(184,107)"/>
<path d="M0 0 C0.99 0.33 1.98 0.66 3 1 C0.25 7.875 0.25 7.875 -2 9 C-2.66 7.68 -3.32 6.36 -4 5 C-3.34 5 -2.68 5 -2 5 C-1.34 3.35 -0.68 1.7 0 0 Z " fill="#484848" transform="translate(160,101)"/>
<path d="M0 0 C2.64 0 5.28 0 8 0 C8 1.32 8 2.64 8 4 C5.33333333 4 2.66666667 4 0 4 C0 2.68 0 1.36 0 0 Z " fill="#707070" transform="translate(197,83)"/>
<path d="M0 0 C0.33 0 0.66 0 1 0 C1.29296875 6.0546875 1.29296875 6.0546875 1 8 C0.01 8.66 -0.98 9.32 -2 10 C-2.6875 8.375 -2.6875 8.375 -3 6 C-1.5625 2.75 -1.5625 2.75 0 0 Z " fill="#A2A2A2" transform="translate(228,213)"/>
<path d="M0 0 C0 0.66 0 1.32 0 2 C-1.43534841 2.2226746 -2.87345525 2.42761906 -4.3125 2.625 C-5.11300781 2.74101562 -5.91351563 2.85703125 -6.73828125 2.9765625 C-9 3 -9 3 -12 1 C-7.95858806 0.36605303 -4.0934693 -0.12404452 0 0 Z " fill="#CFCFCF" transform="translate(172,128)"/>
<path d="M0 0 C2 1 2 1 3 2 C3.66 1.34 4.32 0.68 5 0 C5 1.65 5 3.3 5 5 C2.50907189 6.24546405 1.58919267 5.7767578 -1 5 C-0.67 3.35 -0.34 1.7 0 0 Z " fill="#2B2B2B" transform="translate(170,105)"/>
<path d="M0 0 C2.4375 0.75 2.4375 0.75 4.4375 1.75 C4.1075 2.74 3.7775 3.73 3.4375 4.75 C3.4375 4.09 3.4375 3.43 3.4375 2.75 C1.7875 3.41 0.1375 4.07 -1.5625 4.75 C-1.5625 3.76 -1.5625 2.77 -1.5625 1.75 C-2.8825 2.08 -4.2025 2.41 -5.5625 2.75 C-3.69692219 0.29529235 -3.16506129 -0.30878647 0 0 Z " fill="#9D9D9D" transform="translate(144.5625,90.25)"/>
<path d="M0 0 C3.33557632 2.9905167 5.15083921 5.93184627 7 10 C5.68 10 4.36 10 3 10 C2.01 6.7 1.02 3.4 0 0 Z " fill="#9E9E9E" transform="translate(81,65)"/>
<path d="M0 0 C4.455 0.99 4.455 0.99 9 2 C8.01 2.495 8.01 2.495 7 3 C7 3.66 7 4.32 7 5 C4.0625 4.1875 4.0625 4.1875 1 3 C0.67 2.01 0.34 1.02 0 0 Z " fill="#868686" transform="translate(164,113)"/>
<path d="M0 0 C4 4.875 4 4.875 4 6 C0.7 6.33 -2.6 6.66 -6 7 C-6.33 6.34 -6.66 5.68 -7 5 C-3.535 4.505 -3.535 4.505 0 4 C-0.33 3.01 -0.66 2.02 -1 1 C-0.67 0.67 -0.34 0.34 0 0 Z " fill="#888888" transform="translate(73,111)"/>
<path d="M0 0 C2.59047483 1.72698322 3.62746184 3.6484275 5.0625 6.375 C1.12576356 5.06275452 -1.16469294 3.45589673 -3.9375 0.375 C-1.9375 -0.625 -1.9375 -0.625 0 0 Z " fill="#282828" transform="translate(129.9375,103.625)"/>
<path d="M0 0 C0.99 0 1.98 0 3 0 C3.66 1.98 4.32 3.96 5 6 C2 6 2 6 0 5 C0 3.35 0 1.7 0 0 Z " fill="#CACACA" transform="translate(171,75)"/>
<path d="M0 0 C0.95465783 2.16967689 1.14401212 3.56328793 0.3984375 5.82421875 C-0.35870385 7.5684743 -1.17609198 9.28627131 -2 11 C-2.33 11 -2.66 11 -3 11 C-3.32613618 6.32538149 -2.70582788 3.83325617 0 0 Z " fill="#979797" transform="translate(246,217)"/>
<path d="M0 0 C3.00617269 3.00617269 2.59585316 5.82381598 3 10 C2.01 10 1.02 10 0 10 C0 6.7 0 3.4 0 0 Z " fill="#CBCBCB" transform="translate(175,146)"/>
<path d="M0 0 C1.98 0 3.96 0 6 0 C6.66 1.65 7.32 3.3 8 5 C6.02 4.34 4.04 3.68 2 3 C2 2.34 2 1.68 2 1 C1.34 0.67 0.68 0.34 0 0 Z " fill="#C7C7C7" transform="translate(78,112)"/>
<path d="M0 0 C1.32 0.66 2.64 1.32 4 2 C3.67 2.99 3.34 3.98 3 5 C2.34 5 1.68 5 1 5 C0.67 5.66 0.34 6.32 0 7 C-0.38133299 5.0085944 -0.71325582 3.00720923 -1 1 C-0.67 0.67 -0.34 0.34 0 0 Z " fill="#D7D7D7" transform="translate(46,100)"/>
<path d="M0 0 C0.99 0.66 1.98 1.32 3 2 C2.67 3.32 2.34 4.64 2 6 C0.68 5.67 -0.64 5.34 -2 5 C-1.125 1.125 -1.125 1.125 0 0 Z " fill="#D1D1D1" transform="translate(103,93)"/>
<path d="M0 0 C0.33 0 0.66 0 1 0 C1.33 3.63 1.66 7.26 2 11 C1.34 11 0.68 11 0 11 C-1.28571429 3.57142857 -1.28571429 3.57142857 0 0 Z " fill="#2F2F2F" transform="translate(112,245)"/>
<path d="M0 0 C1.53690745 2.41040161 2.09752136 3.50082285 1.5390625 6.359375 C1.23742187 7.14828125 0.93578125 7.9371875 0.625 8.75 C0.32851562 9.54921875 0.03203125 10.3484375 -0.2734375 11.171875 C-0.51320312 11.77515625 -0.75296875 12.3784375 -1 13 C-2.01936725 9.94189824 -2.00186825 8.50198793 -1.625 5.375 C-1.53476563 4.57835937 -1.44453125 3.78171875 -1.3515625 2.9609375 C-1 1 -1 1 0 0 Z " fill="#C1C1C1" transform="translate(225,221)"/>
<path d="M0 0 C0.33 0 0.66 0 1 0 C0.67 4.29 0.34 8.58 0 13 C-0.33 13 -0.66 13 -1 13 C-1.2165625 11.6078125 -1.2165625 11.6078125 -1.4375 10.1875 C-1.92100111 6.99274889 -1.92100111 6.99274889 -3 4 C-2.34 3.67 -1.68 3.34 -1 3 C-0.67 2.01 -0.34 1.02 0 0 Z " fill="#979797" transform="translate(255,213)"/>
<path d="M0 0 C1.65 0 3.3 0 5 0 C5.33 1.32 5.66 2.64 6 4 C4.02 4 2.04 4 0 4 C0 2.68 0 1.36 0 0 Z " fill="#737373" transform="translate(202,77)"/>
<path d="M0 0 C3.7952131 1.49097658 5.61042731 3.75700849 8 7 C7.01 7 6.02 7 5 7 C0 1.53488372 0 1.53488372 0 0 Z " fill="#A4A4A4" transform="translate(91,108)"/>
<path d="M0 0 C0 0.99 0 1.98 0 3 C-2.31 3 -4.62 3 -7 3 C-7.33 2.34 -7.66 1.68 -8 1 C-5.29120665 -0.35439668 -2.99066732 -0.06501451 0 0 Z " fill="#474747" transform="translate(180,96)"/>
<path d="M0 0 C0.33 0.66 0.66 1.32 1 2 C0.67 2.66 0.34 3.32 0 4 C-0.66 4 -1.32 4 -2 4 C-2.33 4.99 -2.66 5.98 -3 7 C-3.99 5.68 -4.98 4.36 -6 3 C-4.02 2.01 -2.04 1.02 0 0 Z " fill="#E4E4E4" transform="translate(143,91)"/>
<path d="M0 0 C4 0 4 0 5.75 1.375 C7 3 7 3 7 5 C5.35 5 3.7 5 2 5 C1.34 3.35 0.68 1.7 0 0 Z " fill="#858585" transform="translate(108,72)"/>
<path d="M0 0 C0 3 0 3 -2 5.1875 C-2.66 5.785625 -3.32 6.38375 -4 7 C-4.99 6.67 -5.98 6.34 -7 6 C-4.69 4.02 -2.38 2.04 0 0 Z " fill="#9A9A9A" transform="translate(157,227)"/>
<path d="M0 0 C0.66 1.32 1.32 2.64 2 4 C-0.8125 5.5625 -0.8125 5.5625 -4 7 C-4.99 6.67 -5.98 6.34 -7 6 C-6.030625 5.38125 -5.06125 4.7625 -4.0625 4.125 C-0.97164638 2.34321154 -0.97164638 2.34321154 0 0 Z " fill="#DDDDDD" transform="translate(185,118)"/>
<path d="M0 0 C0 0.66 0 1.32 0 2 C0.66 2.33 1.32 2.66 2 3 C-3.75 4.125 -3.75 4.125 -6 3 C-6 2.34 -6 1.68 -6 1 C-3 0 -3 0 0 0 Z " fill="#F5F5F5" transform="translate(215,80)"/>
<path d="M0 0 C0.99 0.495 0.99 0.495 2 1 C2.59355614 3.64860427 2.74209269 6.29197322 3 9 C2.01 9.33 1.02 9.66 0 10 C0 6.7 0 3.4 0 0 Z " fill="#585858" transform="translate(118,246)"/>
<path d="M0 0 C0.33 0.66 0.66 1.32 1 2 C1.66 2 2.32 2 3 2 C3 3.65 3 5.3 3 7 C2.34 7 1.68 7 1 7 C1 6.34 1 5.68 1 5 C0.34 5 -0.32 5 -1 5 C-0.67 3.35 -0.34 1.7 0 0 Z " fill="#3B3B3B" transform="translate(104,162)"/>
<path d="M0 0 C0.66 0.33 1.32 0.66 2 1 C1.67 2.32 1.34 3.64 1 5 C-0.98 5.33 -2.96 5.66 -5 6 C-3.35 4.02 -1.7 2.04 0 0 Z " fill="#CECECE" transform="translate(72,162)"/>
<path d="M0 0 C0.66 0.33 1.32 0.66 2 1 C2 2.98 2 4.96 2 7 C1.01 7.495 1.01 7.495 0 8 C-0.79953138 4.71303767 -1.09658936 3.28976808 0 0 Z " fill="#636363" transform="translate(106,154)"/>
<path d="M0 0 C1.73662334 3.22515763 2.8905928 6.51329166 4 10 C3.34 10 2.68 10 2 10 C-0.17364926 7.18230651 -1.08677021 5.7809319 -0.6875 2.1875 C-0.460625 1.465625 -0.23375 0.74375 0 0 Z " fill="#171717" transform="translate(62,133)"/>
<path d="M0 0 C0.33 0 0.66 0 1 0 C1 2.64 1 5.28 1 8 C-0.5625 6.75 -0.5625 6.75 -2 5 C-1.74853421 2.86254078 -1.54074221 1.54074221 0 0 Z " fill="#EBEBEB" transform="translate(57,125)"/>
<path d="M0 0 C0.33 0.99 0.66 1.98 1 3 C-1.64 3 -4.28 3 -7 3 C-7 2.34 -7 1.68 -7 1 C-2.25 0 -2.25 0 0 0 Z " fill="#E4E4E4" transform="translate(73,113)"/>
<path d="M0 0 C1.32 0.99 2.64 1.98 4 3 C3.67 3.99 3.34 4.98 3 6 C2.34 6 1.68 6 1 6 C0.34 4.35 -0.32 2.7 -1 1 C-0.67 0.67 -0.34 0.34 0 0 Z " fill="#111111" transform="translate(105,91)"/>
</svg>
